<?xml version="1.0" encoding="UTF-8" standalone="no"?>
<svg
   xmlns:dc="http://purl.org/dc/elements/1.1/"
   xmlns:cc="http://creativecommons.org/ns#"
   xmlns:rdf="http://www.w3.org/1999/02/22-rdf-syntax-ns#"
   xmlns:svg="http://www.w3.org/2000/svg"
   xmlns="http://www.w3.org/2000/svg"
   xmlns:sodipodi="http://sodipodi.sourceforge.net/DTD/sodipodi-0.dtd"
   xmlns:inkscape="http://www.inkscape.org/namespaces/inkscape"
   viewBox="0 0 1286.04 795.78"
   version="1.1"
   id="svg139"
   sodipodi:docname="map.svg"
   inkscape:version="0.92.5 (2060ec1f9f, 2020-04-08)">
  <metadata
     id="metadata143">
    <rdf:RDF>
      <cc:Work
         rdf:about="">
        <dc:format>image/svg+xml</dc:format>
        <dc:type
           rdf:resource="http://purl.org/dc/dcmitype/StillImage" />
      </cc:Work>
    </rdf:RDF>
  </metadata>
  <sodipodi:namedview
     pagecolor="#ffffff"
     bordercolor="#666666"
     borderopacity="1"
     objecttolerance="10"
     gridtolerance="10"
     guidetolerance="10"
     inkscape:pageopacity="0"
     inkscape:pageshadow="2"
     inkscape:window-width="1920"
     inkscape:window-height="1016"
     id="namedview141"
     showgrid="false"
     inkscape:zoom="0.59312873"
     inkscape:cx="575.87217"
     inkscape:cy="244.27029"
     inkscape:window-x="0"
     inkscape:window-y="27"
     inkscape:window-maximized="1"
     inkscape:current-layer="svg139" />
  <defs
     id="defs9">
    <style
       id="style2">.cls-1{fill:url(#linear-gradient);}.cls-2{fill:#e7f6ff;}.cls-3{fill:none;}.cls-4{fill:#426572;}.cls-5{fill:#fff;}.cls-6{opacity:0.04;}.cls-7{fill:#a8a8a8;}.cls-8{fill:#e5e5e5;}.cls-9{fill:#e8edf7;}.cls-10{fill:#c0cee2;}.cls-11{fill:#e8837e;}.cls-12{fill:#8da3b2;opacity:0.2;}.cls-13{fill:#d66765;}</style>
    <linearGradient
       id="linear-gradient"
       x1="1.32"
       y1="424.03"
       x2="1254.6"
       y2="424.03"
       gradientUnits="userSpaceOnUse"
       gradientTransform="translate(674.38986,-104.53042)">
      <stop
         offset="0"
         stop-color="#c5e9fa"
         id="stop4" />
      <stop
         offset="1"
         stop-color="#c4f4ea"
         id="stop6" />
    </linearGradient>
  </defs>
  <title
     id="title11">Asset 13</title>
  <g
     id="g129">
    <path
       style="fill:#e7f6ff"
       inkscape:connector-curvature="0"
       id="path15"
       d="m 1248.42,595.38 a 26.3,26.3 0 0 1 -6.2,-0.75 25.94,25.94 0 1 1 6.2,0.75 z m 0,-40.18 a 14.09,14.09 0 0 0 -3.32,27.77 v 0 a 14.08,14.08 0 1 0 3.32,-27.77 z"
       class="cls-2" />
    <circle
       style="fill:#e7f6ff"
       id="circle17"
       transform="rotate(-76.37)"
       r="11.33"
       cy="1325.7108"
       cx="-316.73734"
       class="cls-2" />
    <path
       style="fill:#e7f6ff"
       inkscape:connector-curvature="0"
       id="path19"
       d="m 55.19,592.91 a 26.09,26.09 0 1 1 1.14,0 z m 0,-40.17 H 54.6 a 14.09,14.09 0 1 0 0.61,0 z"
       class="cls-2" />
    <circle
       style="fill:#e7f6ff"
       id="circle21"
       transform="rotate(-2.47)"
       r="11.33"
       cy="626.34875"
       cx="9.1131992"
       class="cls-2" />
    <path
       style="fill:#e7f6ff"
       inkscape:connector-curvature="0"
       id="path23"
       d="m 709.08,171.11 a 26.06,26.06 0 1 1 14.92,-4.72 26.07,26.07 0 0 1 -14.92,4.72 z M 709,130.94 a 14.14,14.14 0 1 0 2.47,0.22 14.17,14.17 0 0 0 -2.47,-0.22 z"
       class="cls-2" />
    <circle
       style="fill:#e7f6ff"
       id="circle25"
       transform="rotate(-35.04)"
       r="11.33"
       cy="504.17288"
       cx="439.59354"
       class="cls-2" />
    <rect
       style="fill:none"
       id="rect27"
       height="44.48"
       width="44.48"
       y="157.98"
       x="713.35999"
       class="cls-3" />
    <rect
       style="fill:none"
       id="rect29"
       height="44.48"
       width="44.48"
       y="157.98"
       x="713.35999"
       class="cls-3" />
    <path
       style="fill:#426572"
       inkscape:connector-curvature="0"
       id="path31"
       d="M 839.66,777"
       class="cls-4" />
    <g
       style="opacity:0.03999999"
       id="g39"
       class="cls-6">
      <polygon
         style="fill:#a8a8a8"
         id="polygon37"
         points="39.11,649.52 39.11,747.43 334.98,747.43 334.98,745.41 624.46,653.77 918.2,653.77 918.2,653.1 1211.94,560.12 1211.94,462.21 918.2,555.19 918.2,555.86 624.46,555.86 334.98,647.5 334.98,649.52 "
         class="cls-7" />
    </g>
    <rect
       style="fill:#ffffff"
       id="rect41"
       height="577.71997"
       width="252.53"
       y="172.94"
       x="154.73"
       class="cls-5" />
    <polygon
       style="fill:#e5e5e5"
       id="polygon43"
       points="1150.46,586.46 897.94,666.39 897.94,88.67 1150.46,8.74 "
       class="cls-8" />
    <rect
       style="fill:#ffffff"
       id="rect45"
       height="577.71997"
       width="252.53"
       y="88.669998"
       x="647.22998"
       class="cls-5" />
    <polygon
       style="fill:#e5e5e5"
       id="polygon47"
       points="649.05,666.39 396.52,746.33 396.52,168.61 649.05,88.67 "
       class="cls-8" />
    <rect
       style="fill:#e8edf7"
       id="rect49"
       height="316.10999"
       width="56.32"
       y="388.42999"
       x="322.03"
       class="cls-9" />
    <polygon
       style="fill:#c0cee2"
       id="polygon51"
       points="707.53,319.4 670.85,319.4 670.85,620.98 790.93,620.98 "
       class="cls-10" />
    <polygon
       style="fill:#c0cee2"
       id="polygon53"
       points="720.3,319.4 803.7,620.98 876.14,620.98 876.14,319.4 "
       class="cls-10" />
    <polygon
       style="fill:#c0cee2"
       id="polygon55"
       points="928.82,210.4 1114.63,60.97 928.82,117.87 928.82,144.99 928.82,205.21 "
       class="cls-10" />
    <polygon
       style="fill:#e8837e"
       id="polygon57"
       points="1125.03,144.99 1125.03,69.87 928.82,227.66 928.82,231.98 928.82,296.55 1125.03,236.02 "
       class="cls-11" />
    <polygon
       style="fill:#c0cee2"
       id="polygon59"
       points="1125.03,249.33 928.82,309.85 928.82,317.38 1125.03,466.35 1125.03,447.73 1125.03,296.34 1125.03,269.57 "
       class="cls-10" />
    <polygon
       style="fill:#c0cee2"
       id="polygon61"
       points="474.69,683.13 501.94,674.3 501.88,674.68 627.25,633.97 627.25,633.69 627.25,554.43 627.25,527.66 627.25,413.87 431.04,610.08 431.04,697.28 431.04,697.68 474.62,683.53 "
       class="cls-10" />
    <polygon
       style="fill:#c0cee2"
       id="polygon63"
       points="627.25,325.07 431.04,385.6 431.04,463.3 431.04,490.07 431.04,592.91 626.85,397.1 627.25,397.5 627.25,376.28 627.25,349.51 "
       class="cls-10" />
    <polygon
       style="fill:#e8837e"
       id="polygon65"
       points="928.82,458.18 1046.94,421.74 928.82,332.06 928.82,383.37 928.82,410.13 "
       class="cls-11" />
    <polygon
       style="fill:#e8837e"
       id="polygon67"
       points="309.32,586.09 309.32,388.43 173.06,388.43 173.06,628.12 "
       class="cls-11" />
    <polygon
       style="fill:#e8edf7"
       id="polygon69"
       points="173.06,641.43 173.06,704.54 309.32,704.54 309.32,599.39 "
       class="cls-9" />
    <rect
       style="fill:#ffffff"
       id="rect71"
       height="10.9"
       width="9.0799999"
       y="117.74"
       x="1121.4"
       class="cls-5" />
    <path
       style="fill:#ffffff"
       inkscape:connector-curvature="0"
       id="path73"
       d="m 1130.48,215.84 h -9.08 V 194 h 9.08 z m 0,-43.6 h -9.08 v -21.8 h 9.08 z"
       class="cls-5" />
    <polygon
       style="fill:#ffffff"
       id="polygon75"
       points="1130.48,239.46 1130.48,252.37 1120.95,261.07 1114.83,254.36 1121.4,248.36 1121.4,239.46 "
       class="cls-5" />
    <path
       style="fill:#ffffff"
       inkscape:connector-curvature="0"
       id="path77"
       d="M 879.77,393.88 H 858 v -9.08 h 21.8 z m -41.78,0 h -21.8 V 384.8 H 838 Z m -43.6,0 h -21.8 v -9.08 h 21.8 z m 108.65,-2 -2.11,-8.84 21.07,-5.04 2.11,8.84 z m 42.18,-10.08 -2.12,-8.8 21.09,-5 2.11,8.84 z m 42.18,-10.08 -2.11,-8.84 13.1,-3.13 4.34,-4 6.12,6.71 -6.07,5.54 z m 37.46,-23.84 -6.12,-6.71 16,-14.62 6.12,6.71 z m 32,-29.25 -6.12,-6.71 16,-14.62 6.12,6.71 z m 32,-29.24 -6.12,-6.71 16,-14.62 6.12,6.71 z"
       class="cls-5" />
    <polygon
       style="fill:#ffffff"
       id="polygon79"
       points="750.78,393.88 742.63,393.88 738.86,401.11 730.81,396.9 737.13,384.8 750.78,384.8 "
       class="cls-5" />
    <path
       style="fill:#ffffff"
       inkscape:connector-curvature="0"
       id="path81"
       d="m 704.69,464.68 -8.05,-4.2 8.42,-16.12 8.05,4.2 z m 16.84,-32.24 -8.05,-4.2 8.42,-16.12 8.05,4.2 z"
       class="cls-5" />
    <polygon
       style="fill:#ffffff"
       id="polygon83"
       points="688.22,476.59 696.27,480.79 687.26,498.05 678.03,480.91 686.03,476.6 687.14,478.66 "
       class="cls-5" />
    <rect
       style="fill:#ffffff"
       id="rect85"
       transform="rotate(-28.3)"
       height="19.559999"
       width="9.0799999"
       y="705.75238"
       x="369.00494"
       class="cls-5" />
    <polygon
       style="fill:#ffffff"
       id="polygon87"
       points="651.31,412.13 658.21,424.95 650.22,429.25 646.78,422.88 639.82,424.87 637.32,416.14 "
       class="cls-5" />
    <path
       style="fill:#ffffff"
       inkscape:connector-curvature="0"
       id="path89"
       d="m 402.49,493.8 h -4.16 v -9.08 h 2.88 l 16,-4.59 2.5,8.73 z m -26,0 h -20 v -9.08 h 20 z m -41.78,0 h -20 v -9.08 h 20 z m -40,0 h -20 v -9.08 h 20 z m -41.78,0 H 233 v -9.08 h 20 z m 186.84,-11.58 -2.51,-8.73 20,-5.74 2.51,8.73 z m 40,-11.47 -2.5,-8.73 20,-5.73 2.5,8.73 z m 40,-11.47 -2.5,-8.73 20,-5.73 2.5,8.73 z m 40,-11.47 -2.5,-8.73 20,-5.73 2.5,8.73 z m 40,-11.47 -2.5,-8.73 20,-5.73 2.5,8.73 z"
       class="cls-5" />
    <polygon
       style="fill:#ffffff"
       id="polygon91"
       points="211.21,491.99 203.95,491.99 203.95,499.25 194.86,499.25 194.86,482.9 211.21,482.9 "
       class="cls-5" />
    <rect
       style="fill:#ffffff"
       id="rect93"
       height="27.25"
       width="9.0799999"
       y="526.51001"
       x="196.67999"
       class="cls-5" />
    <rect
       style="fill:#ffffff"
       id="rect95"
       height="10.9"
       width="9.0799999"
       y="582.82001"
       x="196.67999"
       class="cls-5" />
    <rect
       style="fill:#e8edf7"
       id="rect97"
       height="163.50999"
       width="130.8"
       y="212.21001"
       x="247.55"
       class="cls-9" />
    <rect
       style="fill:#e8837e"
       id="rect99"
       height="163.50999"
       width="61.77"
       y="212.21001"
       x="173.06"
       class="cls-11" />
    <polygon
       style="fill:#e8837e"
       id="polygon101"
       points="1125.03,553.76 1125.03,481.03 1059.4,431.2 972.27,458.08 1031.44,584.42 1125.03,554.03 "
       class="cls-11" />
    <polygon
       style="fill:#c0cee2"
       id="polygon103"
       points="928.82,617.75 972.4,603.6 972.47,603.2 999.72,594.37 999.66,594.74 1019.25,588.38 960,461.87 928.82,471.49 928.82,617.34 "
       class="cls-10" />
    <polygon
       style="fill:#426572"
       id="polygon105"
       points="395.59,164.08 646.25,84.73 679.55,84.14 897.01,84.14 1156.46,2.01 1156.46,136.15 1144.46,136.15 1144.46,18.4 898.87,96.14 679.61,96.14 648.21,96.7 397.45,176.08 155.44,176.08 155.44,664.23 155.14,751.49 143.14,751.45 143.44,664.21 143.44,164.08 "
       class="cls-4" />
    <polygon
       style="fill:#426572"
       id="polygon107"
       points="402.89,741.65 648.09,661.86 899.37,661.86 902.84,661.41 1144.46,583.56 1144.46,283.14 1156.46,283.14 1156.46,592.3 905.48,673.17 900.14,673.86 650,673.86 405.46,753.43 402.32,753.8 149.44,753.8 149.44,741.8 401.62,741.8 "
       class="cls-4" />
    <rect
       style="fill:#426572"
       id="rect109"
       height="22.5"
       width="12"
       y="234.14999"
       x="1144.46"
       class="cls-4" />
    <rect
       style="fill:#426572"
       id="rect111"
       height="60.66"
       width="12"
       y="158.98"
       x="1144.46"
       class="cls-4" />
    <path
       style="opacity:0.2;fill:#8da3b2"
       inkscape:connector-curvature="0"
       id="path113"
       d="m 668,23.56 c -150.32,-0.32 -244,94.27 -244.28,243.23 -0.1,46 24.12,117.86 65.92,204.62 18.88,36.61 41.8,77.28 66.11,118 29.68,50.16 62.06,100.34 94.48,146.44 l 16.2,21.72 c 5.43,-6.78 10.86,-13.53 16.29,-21.65 32.61,-47.32 65.21,-96 95.11,-146 24.48,-40.58 46.23,-81.15 65.26,-117.69 43.53,-86.57 68.05,-158.3 68.15,-204.33 C 911.55,122.94 814.26,23.88 668,23.56 Z m -0.85,392.7 C 577.77,416.07 504.8,342.8 505,253.41 505.2,164.02 578.48,91.07 667.86,91.26 757.24,91.45 830.21,164.74 830,254.11 829.79,343.48 756.54,416.46 667.16,416.27 Z"
       class="cls-12" />
    <path
       style="fill:#ffffff"
       inkscape:connector-curvature="0"
       id="path115"
       d="m 792.69,234.3 c -0.19,89.41 -73.48,162.36 -162.86,162.16 -77.41,-0.17 -142.52,-55.15 -158.42,-128 A 161.51,161.51 0 0 1 469,240.16 C 469.17,150.8 542.46,77.82 631.83,78 c 77.29,0.17 142.32,55 158.37,127.63 a 0.37,0.37 0 0 0 0,0.12 161.39,161.39 0 0 1 2.49,28.55 z"
       class="cls-5" />
    <path
       style="fill:#e8837e"
       inkscape:connector-curvature="0"
       id="path117"
       d="M 632.3,5.8 C 482,5.47 388.34,100.07 388,249 c -0.1,46 24.12,117.86 65.92,204.62 18.88,36.61 41.8,77.28 66.11,118 29.68,50.16 62.06,100.34 94.48,146.44 l 16.2,21.72 c 5.43,-6.78 10.86,-13.53 16.29,-21.65 32.61,-47.32 65.21,-96 95.11,-146 24.48,-40.58 46.23,-81.15 65.26,-117.69 43.53,-86.57 68.05,-158.3 68.15,-204.33 C 875.84,105.18 778.56,6.11 632.3,5.8 Z m -0.85,392.7 C 542.08,398.31 469.11,325 469.3,235.65 469.49,146.3 542.78,73.3 632.15,73.49 721.52,73.68 794.5,147 794.31,236.35 794.12,325.7 720.83,398.7 631.45,398.5 Z"
       class="cls-11" />
    <path
       style="fill:#d66765"
       inkscape:connector-curvature="0"
       id="path119"
       d="m 798,476 c -16.72,31.69 -35.36,65.8 -55.94,99.91 -29.88,50 -62.49,98.71 -95.1,146 -5.43,8.12 -10.86,14.87 -16.3,21.65 l -16.2,-21.72 c -32.4,-46.1 -64.8,-96.28 -94.47,-146.43 -24.31,-40.7 -47.23,-81.37 -66.11,-118 -41.8,-86.76 -66,-158.59 -65.92,-204.62 0.13,-61.47 16.16,-113.67 45.5,-153.78 -11.62,30.25 -17.77,64.71 -17.86,102.7 -0.1,46 24.12,117.87 65.92,204.62 18.88,36.61 41.8,77.28 66.11,118 29.67,50.15 62.06,100.33 94.47,146.43 l 16.2,21.72 c 5.44,-6.78 10.87,-13.53 16.3,-21.65 32.6,-47.31 65.21,-96 95.1,-146 C 779.59,508.48 789,492.11 798,476 Z"
       class="cls-13" />
    <path
       style="fill:#426572"
       inkscape:connector-curvature="0"
       id="path121"
       d="M 630.48,752.42 608.75,723.29 C 576.32,677.16 543.55,626.36 513.98,576.38 488.63,534 465.7,493 447.67,458.06 l -0.08,-0.17 C 403.29,365.95 380.88,296.08 380.98,250.22 381.14,175.08 404.64,111.96 448.92,67.68 493.2,23.4 556.34,0 631.49,0 h 0.78 c 73.51,0.16 136.28,24.36 181.53,70 a 227.57,227.57 0 0 1 50.91,79.53 c 11.87,31 17.85,65.24 17.77,101.77 -0.1,46.27 -23.92,118 -68.9,207.46 v 0.09 c -16.94,32.52 -39.69,75.32 -65.47,118.07 -31.94,53.46 -66.12,104 -95.34,146.39 -5.48,8.18 -11,15.1 -16.39,21.79 z m -10.33,-37.26 10.71,14.36 c 3.47,-4.43 6.87,-9 10.3,-14.07 29.14,-42.28 63.16,-92.59 94.91,-145.73 25.58,-42.41 48.19,-84.95 65,-117.28 44,-87.5 67.29,-157.06 67.39,-201.16 C 868.61,181.92 846.26,122.64 803.84,79.86 761.29,36.92 701.94,14.15 632.24,14 h -0.75 C 560.13,14 500.43,36 458.81,77.58 417.19,119.16 395.13,178.89 395,250.25 c -0.09,43.1 22.45,112.77 65.18,201.48 17.89,34.7 40.66,75.33 65.85,117.5 29.36,49.66 61.91,100.11 94.12,145.93 z M 631.77,406.71 H 631.4 A 169.31,169.31 0 0 1 512.3,117.22 168.3,168.3 0 0 1 631.75,67.7 h 0.37 a 169.31,169.31 0 0 1 119.1,289.48 168.3,168.3 0 0 1 -119.45,49.53 z m 0,-325 a 155.51,155.51 0 0 0 -0.33,311 h 0.34 a 155.51,155.51 0 0 0 0.33,-311 z"
       class="cls-4" />
    <path
       style="fill:#426572"
       inkscape:connector-curvature="0"
       id="path123"
       d="m 954.18,795.78 h -596.5 v -13 h 596.5 a 6.5,6.5 0 0 1 0,13 z"
       class="cls-4" />
    <path
       style="fill:#426572"
       inkscape:connector-curvature="0"
       id="path125"
       d="m 331,795.78 h -36.47 a 6.5,6.5 0 0 1 0,-13 H 331 a 6.5,6.5 0 1 1 0,13 z"
       class="cls-4" />
    <path
       style="fill:#426572"
       inkscape:connector-curvature="0"
       id="path127"
       d="m 270.86,795.78 h -11.62 a 6.5,6.5 0 0 1 0,-13 h 11.62 a 6.5,6.5 0 0 1 0,13 z"
       class="cls-4" />
    <path
       style="fill:#426572"
       inkscape:connector-curvature="0"
       id="path129"
       d="M 1163.34,795.78 H 980 v -13 h 183.34 a 6.5,6.5 0 0 1 0,13 z"
       class="cls-4" />
    <path
       style="fill:#426572"
       inkscape:connector-curvature="0"
       id="path131"
       d="M 226,795.78 H 42.65 v -13 H 226 a 6.5,6.5 0 1 1 0,13 z"
       class="cls-4" />
    <path
       style="fill:#ffffff"
       inkscape:connector-curvature="0"
       id="path133"
       d="M 767.08,87.74 C 802,120.15 826.16,162 835.81,208.79 a 259.15,259.15 0 0 1 5.06,52.21 c 0,7.72 12,7.73 12,0 -0.06,-56.28 -17.08,-110.73 -52.31,-154.92 a 245.8,245.8 0 0 0 -25,-26.85 c -5.65,-5.25 -14.16,3.22 -8.49,8.49 z"
       class="cls-5" />
    <path
       style="fill:#ffffff"
       inkscape:connector-curvature="0"
       id="path135"
       d="m 704.25,45.76 0.7,0.29 c -1.92,-0.77 1,0.45 1.44,0.65 2.93,1.33 5.81,2.76 8.66,4.24 a 247,247 0 0 1 28.36,17.5 c 6.31,4.47 12.32,-5.93 6.06,-10.36 -13.07,-9.26 -27.07,-18 -42,-23.89 -7.18,-2.84 -10.3,8.76 -3.19,11.57 z"
       class="cls-5" />
  </g>
</svg>
