<?xml version="1.0" encoding="UTF-8" standalone="no"?>
<svg
   xmlns:dc="http://purl.org/dc/elements/1.1/"
   xmlns:cc="http://creativecommons.org/ns#"
   xmlns:rdf="http://www.w3.org/1999/02/22-rdf-syntax-ns#"
   xmlns:svg="http://www.w3.org/2000/svg"
   xmlns="http://www.w3.org/2000/svg"
   xmlns:sodipodi="http://sodipodi.sourceforge.net/DTD/sodipodi-0.dtd"
   xmlns:inkscape="http://www.inkscape.org/namespaces/inkscape"
   viewBox="0 0 749.99998 560.99998"
   version="1.1"
   id="svg52"
   sodipodi:docname="time.svg"
   width="750"
   height="561"
   inkscape:version="0.92.5 (2060ec1f9f, 2020-04-08)">
  <metadata
     id="metadata56">
    <rdf:RDF>
      <cc:Work
         rdf:about="">
        <dc:format>image/svg+xml</dc:format>
        <dc:type
           rdf:resource="http://purl.org/dc/dcmitype/StillImage" />
        <dc:title>Asset 290</dc:title>
      </cc:Work>
    </rdf:RDF>
  </metadata>
  <sodipodi:namedview
     pagecolor="#ffffff"
     bordercolor="#666666"
     borderopacity="1"
     objecttolerance="10"
     gridtolerance="10"
     guidetolerance="10"
     inkscape:pageopacity="0"
     inkscape:pageshadow="2"
     inkscape:window-width="960"
     inkscape:window-height="1016"
     id="namedview54"
     showgrid="false"
     inkscape:zoom="0.29972059"
     inkscape:cx="213.09"
     inkscape:cy="213.75741"
     inkscape:window-x="960"
     inkscape:window-y="27"
     inkscape:window-maximized="0"
     inkscape:current-layer="svg52" />
  <defs
     id="defs4">
    <style
       id="style2">.cls-1{fill:#6ab6ff;}.cls-2{fill:#92ceff;}.cls-3{fill:#3d3634;}.cls-4{fill:#e8e8e8;}.cls-5{fill:#dadada;}.cls-6{opacity:0.4;}.cls-7{opacity:0.1;}.cls-8{fill:#55e0ff;}.cls-9{fill:#fff;}</style>
  </defs>
  <title
     id="title6">Asset 290</title>
  <g
     id="Layer_2"
     data-name="Layer 2"
     transform="matrix(2.8643121,0,0,2.8643121,93.06576,-1.4055969)">
    <g
       id="Layer_1-2"
       data-name="Layer 1">
      <circle
         class="cls-1"
         cx="98.43"
         cy="98.43"
         r="96.93"
         id="circle8"
         style="fill:#6ab6ff" />
      <path
         class="cls-2"
         d="M 11.1,98.43 A 96.93,96.93 0 0 1 103.22,1.62 Q 100.84,1.5 98.42,1.5 a 96.93,96.93 0 1 0 0,193.85 q 2.41,0 4.8,-0.12 A 96.93,96.93 0 0 1 11.1,98.43 Z"
         id="path10"
         inkscape:connector-curvature="0"
         style="fill:#92ceff" />
      <path
         class="cls-3"
         d="M 98.43,196.85 A 98.43,98.43 0 1 1 196.86,98.42 98.54,98.54 0 0 1 98.43,196.85 Z M 98.43,3 A 95.43,95.43 0 1 0 193.86,98.43 95.53,95.53 0 0 0 98.43,3 Z"
         id="path12"
         inkscape:connector-curvature="0"
         style="fill:#3d3634" />
      <circle
         class="cls-4"
         cx="98.43"
         cy="97.790001"
         r="80.290001"
         id="circle14"
         style="fill:#e8e8e8" />
      <path
         class="cls-5"
         d="M 24.53,108 A 80.29,80.29 0 0 1 169.53,60.5 80.3,80.3 0 1 0 33.69,145.28 79.93,79.93 0 0 1 24.53,108 Z"
         id="path16"
         inkscape:connector-curvature="0"
         style="fill:#dadada" />
      <path
         class="cls-3"
         d="m 96.27,42.14 c 3.22,0 3.22,-5 0,-5 -3.22,0 -3.22,5 0,5 z"
         id="path18"
         inkscape:connector-curvature="0"
         style="fill:#3d3634" />
      <path
         class="cls-3"
         d="m 101.07,170.73 c 3.22,0 3.22,-5 0,-5 -3.22,0 -3.22,5 0,5 z"
         id="path20"
         inkscape:connector-curvature="0"
         style="fill:#3d3634" />
      <path
         class="cls-3"
         d="m 164.4,104.52 c 3.22,0 3.22,-5 0,-5 -3.22,0 -3.22,5 0,5 z"
         id="path22"
         inkscape:connector-curvature="0"
         style="fill:#3d3634" />
      <path
         class="cls-3"
         d="m 32,103.56 c 3.22,0 3.22,-5 0,-5 -3.22,0 -3.22,5 0,5 z"
         id="path24"
         inkscape:connector-curvature="0"
         style="fill:#3d3634" />
      <rect
         class="cls-4"
         x="93.669998"
         y="67.150002"
         width="9.3800001"
         height="34.5"
         rx="4.6900001"
         ry="4.6900001"
         id="rect26"
         style="fill:#e8e8e8" />
      <rect
         class="cls-3"
         x="93.669998"
         y="67.150002"
         width="9.3800001"
         height="34.5"
         rx="4.6900001"
         ry="4.6900001"
         id="rect28"
         style="fill:#3d3634" />
      <circle
         class="cls-4"
         cx="98.269997"
         cy="102.5"
         r="8.1599998"
         id="circle30"
         style="fill:#e8e8e8" />
      <circle
         class="cls-3"
         cx="98.269997"
         cy="101.86"
         r="8.1599998"
         id="circle32"
         style="fill:#3d3634" />
      <path
         class="cls-3"
         d="m 62.65,128.18 69.17,-46 9.81,-6.52 c 2.67,-1.77 0.17,-6.11 -2.52,-4.32 l -69.17,46 -9.81,6.52 c -2.67,1.77 -0.17,6.11 2.52,4.32 z"
         id="path34"
         inkscape:connector-curvature="0"
         style="fill:#3d3634" />
      <g
         class="cls-6"
         id="g46"
         style="opacity:0.4">
        <g
           class="cls-7"
           id="g38"
           style="opacity:0.1">
          <ellipse
             class="cls-8"
             cx="98.349998"
             cy="97.059998"
             rx="80.290001"
             ry="78.93"
             id="ellipse36"
             style="fill:#55e0ff" />
        </g>
        <path
           class="cls-9"
           d="m 114,19.16 -81.25,123.7 a 83,83 0 0 1 -9.51,-24.2 L 88.6,19.18 a 78.75,78.75 0 0 1 25.42,0 z"
           id="path40"
           inkscape:connector-curvature="0"
           style="fill:#ffffff" />
        <path
           class="cls-9"
           d="M 136.62,27.93 47.7,157.5 a 79.37,79.37 0 0 1 -7.56,-7.7 L 126.53,23.92 a 79.52,79.52 0 0 1 10.09,4.01 z"
           id="path42"
           inkscape:connector-curvature="0"
           style="fill:#ffffff" />
        <path
           class="cls-9"
           d="m 176.72,78.67 v 0 l -66.35,96.69 v 0 A 82.36,82.36 0 0 1 88.6,175.58 L 168.77,58.76 a 77.6,77.6 0 0 1 7.95,19.91 z"
           id="path44"
           inkscape:connector-curvature="0"
           style="fill:#ffffff" />
      </g>
      <path
         class="cls-3"
         d="m 98.43,180.86 a 81.79,81.79 0 1 1 81.79,-81.79 81.88,81.88 0 0 1 -81.79,81.79 z m 0,-160.58 a 78.79,78.79 0 1 0 78.79,78.79 78.88,78.88 0 0 0 -78.79,-78.8 z"
         id="path48"
         inkscape:connector-curvature="0"
         style="fill:#3d3634" />
    </g>
  </g>
</svg>
