<?xml version="1.0" encoding="UTF-8" standalone="no"?>
<svg
   xmlns:dc="http://purl.org/dc/elements/1.1/"
   xmlns:cc="http://creativecommons.org/ns#"
   xmlns:rdf="http://www.w3.org/1999/02/22-rdf-syntax-ns#"
   xmlns:svg="http://www.w3.org/2000/svg"
   xmlns="http://www.w3.org/2000/svg"
   xmlns:sodipodi="http://sodipodi.sourceforge.net/DTD/sodipodi-0.dtd"
   xmlns:inkscape="http://www.inkscape.org/namespaces/inkscape"
   viewBox="0 0 118.59 128.8"
   version="1.1"
   id="svg64"
   sodipodi:docname="verified.svg"
   inkscape:version="0.92.5 (2060ec1f9f, 2020-04-08)">
  <metadata
     id="metadata68">
    <rdf:RDF>
      <cc:Work
         rdf:about="">
        <dc:format>image/svg+xml</dc:format>
        <dc:type
           rdf:resource="http://purl.org/dc/dcmitype/StillImage" />
      </cc:Work>
    </rdf:RDF>
  </metadata>
  <sodipodi:namedview
     pagecolor="#ffffff"
     bordercolor="#666666"
     borderopacity="1"
     objecttolerance="10"
     gridtolerance="10"
     guidetolerance="10"
     inkscape:pageopacity="0"
     inkscape:pageshadow="2"
     inkscape:window-width="1920"
     inkscape:window-height="1016"
     id="namedview66"
     showgrid="false"
     inkscape:zoom="5.1825216"
     inkscape:cx="74.860891"
     inkscape:cy="66.083301"
     inkscape:window-x="0"
     inkscape:window-y="27"
     inkscape:window-maximized="1"
     inkscape:current-layer="svg64" />
  <defs
     id="defs4">
    <style
       id="style2">.cls-1{fill:#f7afa3;opacity:0.15;}.cls-2{fill:#fff;}.cls-3{fill:#f5a8a0;}.cls-4{fill:#d5dfeb;}.cls-5,.cls-7{fill:#3e6177;}.cls-6,.cls-7{opacity:0.3;}</style>
  </defs>
  <title
     id="title6">Asset 190</title>
  <g
     id="g152">
    <rect
       style="opacity:0.15;fill:#f7afa3"
       id="rect8"
       transform="rotate(-45)"
       ry="25"
       rx="25"
       height="50"
       width="147"
       y="66.066757"
       x="-80.720467"
       class="cls-1" />
    <path
       style="fill:#ffffff"
       inkscape:connector-curvature="0"
       id="path10"
       d="m 84.91,18 -0.09,1.94 a 8.15,8.15 0 0 0 1.67,5.32 l 1.18,1.54 A 8.15,8.15 0 0 1 87.2,37.26 l -1.31,1.43 a 8.15,8.15 0 0 0 -2.14,5.15 l -0.09,1.94 a 8.15,8.15 0 0 1 -7.09,7.71 l -1.92,0.25 A 8.15,8.15 0 0 0 69.7,56.31 L 68.39,57.7 A 8.15,8.15 0 0 1 58,59.05 l -1.63,-1 A 8.15,8.15 0 0 0 50.93,56.83 L 49,57 A 8.15,8.15 0 0 1 40.18,51.36 L 39.6,49.51 a 8.15,8.15 0 0 0 -3.39,-4.43 l -1.63,-1 a 8.15,8.15 0 0 1 -3.13,-10 l 0.74,-1.79 a 8.15,8.15 0 0 0 0.25,-5.57 l -0.58,-1.85 a 8.15,8.15 0 0 1 4,-9.67 l 1.72,-0.89 a 8.15,8.15 0 0 0 3.77,-4.1 L 42.09,8.42 A 8.15,8.15 0 0 1 51.39,3.6 L 53.32,4 A 8.15,8.15 0 0 0 58.85,3.28 L 60.57,2.39 A 8.15,8.15 0 0 1 70.79,4.7 L 72,6.24 a 8.15,8.15 0 0 0 4.7,3 l 1.89,0.42 A 8.15,8.15 0 0 1 84.91,18 Z"
       class="cls-2" />
    <path
       style="fill:#f5a8a0"
       inkscape:connector-curvature="0"
       id="path12"
       d="m 100.09,51.79 a 6.29,6.29 0 1 1 6.29,-6.29 6.3,6.3 0 0 1 -6.29,6.29 z m 0,-9.59 a 3.29,3.29 0 1 0 3.29,3.29 3.3,3.3 0 0 0 -3.29,-3.28 z"
       class="cls-3" />
    <polyline
       style="fill:#d5dfeb"
       id="polyline14"
       points="59.29 60.09 39.89 103.06 35.9 91.81 24.81 96.25 42.32 56.12"
       class="cls-4" />
    <polyline
       style="fill:#d5dfeb"
       id="polyline16"
       points="59.83 60.09 79.22 103.06 83.22 91.81 94.31 96.25 74.91 53.28"
       class="cls-4" />
    <path
       style="fill:#f5a8a0"
       inkscape:connector-curvature="0"
       id="path18"
       d="m 75.32,22.47 -0.06,1.27 a 5.33,5.33 0 0 0 1.09,3.48 l 0.77,1 a 5.33,5.33 0 0 1 -0.31,6.84 L 76,36 a 5.33,5.33 0 0 0 -1.4,3.36 l -0.06,1.27 a 5.33,5.33 0 0 1 -4.63,5 l -1.26,0.16 a 5.33,5.33 0 0 0 -3.23,1.68 l -0.86,0.93 a 5.33,5.33 0 0 1 -6.79,0.88 L 56.7,48.6 A 5.33,5.33 0 0 0 53.14,47.81 L 51.84,48 A 5.33,5.33 0 0 1 46.07,44.31 L 45.69,43.1 A 5.33,5.33 0 0 0 43.48,40.21 L 42.41,39.53 A 5.33,5.33 0 0 1 40.41,33 L 40.9,31.83 A 5.33,5.33 0 0 0 41,28.18 L 40.64,27 a 5.33,5.33 0 0 1 2.63,-6.32 L 44.4,20.1 a 5.33,5.33 0 0 0 2.47,-2.68 l 0.49,-1.17 a 5.33,5.33 0 0 1 6.08,-3.15 l 1.24,0.28 a 5.33,5.33 0 0 0 3.61,-0.47 l 1.13,-0.58 a 5.33,5.33 0 0 1 6.68,1.49 l 0.77,1 a 5.33,5.33 0 0 0 3.07,2 l 1.24,0.28 a 5.33,5.33 0 0 1 4.14,5.37 z"
       class="cls-3" />
    <polygon
       style="fill:#3e6177"
       id="polygon20"
       points="43.69,56.72 27.65,93.5 36.79,89.83 40.06,99.05 57.92,59.48 60.66,60.71 39.73,107.08 35.01,93.78 21.97,99.01 40.94,55.52 "
       class="cls-5" />
    <polygon
       style="fill:#3e6177"
       id="polygon22"
       points="82.33,89.83 91.41,93.47 73.54,53.9 76.27,52.67 97.2,99.03 84.11,93.78 79.39,107.08 58.46,60.71 61.19,59.48 79.06,99.05 "
       class="cls-5" />
    <path
       style="fill:#3e6177"
       inkscape:connector-curvature="0"
       id="path24"
       d="m 61.39,61.84 a 9.62,9.62 0 0 1 -5.2,-1.52 l -1.63,-1 a 6.67,6.67 0 0 0 -4.44,-1 L 48.2,58.57 A 9.64,9.64 0 0 1 37.75,51.89 L 37.17,50 a 6.66,6.66 0 0 0 -2.76,-3.61 l -1.63,-1 A 9.63,9.63 0 0 1 29.07,33.56 l 0.74,-1.79 A 6.66,6.66 0 0 0 30,27.18 L 29.42,25.33 A 9.63,9.63 0 0 1 34.2,13.88 L 35.92,13 A 6.66,6.66 0 0 0 39,9.64 l 0.74,-1.79 a 9.63,9.63 0 0 1 11,-5.71 l 1.89,0.42 A 6.65,6.65 0 0 0 57.15,2 L 58.87,1.11 A 9.63,9.63 0 0 1 71,3.79 l 1.18,1.54 A 6.65,6.65 0 0 0 76,7.78 l 1.89,0.42 a 9.63,9.63 0 0 1 7.53,9.85 L 85.32,20 a 6.65,6.65 0 0 0 1.36,4.34 l 1.18,1.54 A 9.63,9.63 0 0 1 87.3,38.27 L 86,39.69 a 6.66,6.66 0 0 0 -1.75,4.2 l -0.09,1.94 a 9.63,9.63 0 0 1 -8.39,9.13 l -1.92,0.25 a 6.65,6.65 0 0 0 -4,2.09 l -1.31,1.43 a 9.63,9.63 0 0 1 -7.15,3.11 z M 51,55.23 a 9.66,9.66 0 0 1 5.2,1.52 l 1.63,1 a 6.64,6.64 0 0 0 8.47,-1.1 l 1.31,-1.43 a 9.66,9.66 0 0 1 5.86,-3 L 75.37,52 a 6.64,6.64 0 0 0 5.78,-6.29 l 0.09,-1.94 a 9.66,9.66 0 0 1 2.54,-6.09 l 1.31,-1.43 a 6.64,6.64 0 0 0 0.39,-8.54 L 84.3,26.15 a 9.65,9.65 0 0 1 -2,-6.3 l 0.09,-1.94 A 6.64,6.64 0 0 0 77.2,11.12 L 75.31,10.7 A 9.66,9.66 0 0 1 69.75,7.15 L 68.6,5.61 A 6.64,6.64 0 0 0 60.26,3.75 L 58.54,4.64 A 9.67,9.67 0 0 1 52,5.49 L 50.1,5.07 A 6.64,6.64 0 0 0 42.51,9 l -0.74,1.79 a 9.66,9.66 0 0 1 -4.47,4.86 l -1.72,0.89 a 6.64,6.64 0 0 0 -3.28,7.89 l 0.58,1.85 a 9.67,9.67 0 0 1 -0.3,6.59 l -0.74,1.79 a 6.64,6.64 0 0 0 2.56,8.15 l 1.63,1 a 9.67,9.67 0 0 1 4,5.24 L 40.61,51 a 6.64,6.64 0 0 0 7.2,4.6 l 1.92,-0.25 A 9.61,9.61 0 0 1 51,55.23 Z"
       class="cls-5" />
    <path
       style="fill:#3e6177"
       inkscape:connector-curvature="0"
       id="path26"
       d="M 60.59,51.66 A 6.81,6.81 0 0 1 56.91,50.58 L 55.84,49.9 A 3.85,3.85 0 0 0 53.29,49.33 L 52,49.49 A 6.82,6.82 0 0 1 44.61,44.76 L 44.23,43.55 A 3.83,3.83 0 0 0 42.64,41.47 L 41.57,40.79 A 6.82,6.82 0 0 1 39,32.42 l 0.49,-1.17 a 3.83,3.83 0 0 0 0.12,-2.61 l -0.38,-1.21 a 6.82,6.82 0 0 1 3.37,-8.1 l 1.13,-0.58 A 3.84,3.84 0 0 0 45.5,16.82 L 46,15.64 a 6.81,6.81 0 0 1 7.79,-4 l 1.24,0.28 a 3.83,3.83 0 0 0 2.6,-0.34 L 58.71,11 a 6.82,6.82 0 0 1 8.56,1.91 l 0.77,1 a 3.84,3.84 0 0 0 2.21,1.41 l 1.24,0.28 a 6.82,6.82 0 0 1 5.33,7 v 0 l -0.06,1.27 a 3.84,3.84 0 0 0 0.78,2.5 l 0.77,1 a 6.82,6.82 0 0 1 -0.4,8.77 l -0.86,0.93 a 3.83,3.83 0 0 0 -1,2.42 L 76,40.69 a 6.82,6.82 0 0 1 -5.94,6.46 l -1.26,0.16 a 3.83,3.83 0 0 0 -2.32,1.21 l -0.86,0.93 a 6.82,6.82 0 0 1 -5.03,2.21 z M 53.78,46.3 a 6.84,6.84 0 0 1 3.68,1.08 l 1.07,0.68 a 3.82,3.82 0 0 0 4.88,-0.63 l 0.86,-0.93 a 6.84,6.84 0 0 1 4.15,-2.15 l 1.26,-0.16 A 3.82,3.82 0 0 0 73,40.55 l 0.06,-1.27 A 6.83,6.83 0 0 1 74.85,35 l 0.86,-0.93 a 3.82,3.82 0 0 0 0.22,-4.91 l -0.77,-1 a 6.83,6.83 0 0 1 -1.4,-4.46 l 0.06,-1.27 a 3.82,3.82 0 0 0 -3,-3.91 l -1.24,-0.28 a 6.84,6.84 0 0 1 -3.93,-2.52 l -0.77,-1 a 3.82,3.82 0 0 0 -4.8,-1.07 L 59,14.2 a 6.83,6.83 0 0 1 -4.63,0.6 l -1.24,-0.28 a 3.83,3.83 0 0 0 -4.37,2.26 L 48.24,18 a 6.84,6.84 0 0 1 -3.16,3.44 L 44,22 a 3.82,3.82 0 0 0 -1.89,4.54 l 0.38,1.21 a 6.84,6.84 0 0 1 -0.21,4.66 l -0.49,1.17 a 3.82,3.82 0 0 0 1.47,4.69 l 1.07,0.68 a 6.84,6.84 0 0 1 2.84,3.71 l 0.38,1.21 a 3.83,3.83 0 0 0 4.14,2.65 l 1.26,-0.16 a 6.78,6.78 0 0 1 0.83,-0.06 z"
       class="cls-5" />
    <path
       style="fill:#3e6177"
       inkscape:connector-curvature="0"
       id="path28"
       d="m 20.63,86.16 a 6.84,6.84 0 1 1 6.84,-6.84 6.85,6.85 0 0 1 -6.84,6.84 z m 0,-10.68 a 3.84,3.84 0 1 0 3.84,3.84 3.84,3.84 0 0 0 -3.84,-3.83 z"
       class="cls-5" />
    <circle
       style="fill:#f5a8a0"
       id="circle30"
       r="2.9400001"
       cy="97.169998"
       cx="52.93"
       class="cls-3" />
    <circle
       style="fill:#f5a8a0"
       id="circle32"
       r="2.9400001"
       cy="5.3400002"
       cx="32.639999"
       class="cls-3" />
    <circle
       style="fill:#d5dfeb"
       id="circle34"
       r="2.9400001"
       cy="18.15"
       cx="92.440002"
       class="cls-4" />
    <g
       style="opacity:0.3"
       id="g40"
       class="cls-6">
      <rect
         style="opacity:0.3;fill:#3e6177"
         id="rect36"
         transform="rotate(-46.48,55.595088,26.963126)"
         height="3"
         width="14.73"
         y="25.459999"
         x="48.23"
         class="cls-7" />
      <rect
         style="opacity:0.3;fill:#3e6177"
         id="rect38"
         transform="rotate(-47.29,60.671034,30.428306)"
         height="3"
         width="9.4499998"
         y="28.93"
         x="55.950001"
         class="cls-7" />
    </g>
    <rect
       style="fill:#ffffff"
       id="rect42"
       transform="rotate(-65.31)"
       height="2"
       width="14.95"
       y="71.385284"
       x="-50.350723"
       class="cls-2" />
    <rect
       style="fill:#ffffff"
       id="rect44"
       transform="rotate(-65.31)"
       height="2"
       width="6.4099998"
       y="71.388809"
       x="-58.893627"
       class="cls-2" />
    <rect
       style="fill:#ffffff"
       id="rect46"
       transform="rotate(-65.29)"
       height="2"
       width="2.1400001"
       y="71.400711"
       x="-63.126717"
       class="cls-2" />
    <rect
       style="fill:#ffffff"
       id="rect48"
       height="12.69"
       width="2"
       y="88.089996"
       x="90.32"
       class="cls-2" />
    <rect
       style="fill:#ffffff"
       id="rect50"
       height="5.4400001"
       width="2"
       y="102.59"
       x="90.32"
       class="cls-2" />
    <rect
       style="fill:#ffffff"
       id="rect52"
       height="1.8099999"
       width="2"
       y="109.84"
       x="90.32"
       class="cls-2" />
    <circle
       style="fill:#ffffff"
       id="circle54"
       r="26.17"
       cy="86.160004"
       cx="89.620003"
       class="cls-2" />
    <circle
       style="fill:#f5a8a0"
       id="circle56"
       r="21.23"
       cy="86.160004"
       cx="90.529999"
       class="cls-3" />
    <path
       style="fill:#3e6177"
       inkscape:connector-curvature="0"
       id="path58"
       d="m 89.62,108.89 a 22.73,22.73 0 1 1 22.73,-22.73 22.76,22.76 0 0 1 -22.73,22.73 z m 0,-42.47 A 19.73,19.73 0 1 0 109.35,86.15 19.76,19.76 0 0 0 89.62,66.43 Z"
       class="cls-5" />
    <path
       style="fill:#ffffff"
       inkscape:connector-curvature="0"
       id="path60"
       d="m 87.7,95.64 a 1.92,1.92 0 0 1 -1.1,-0.35 l -7.67,-5.37 a 1.5008331,1.5008331 0 0 1 1.72,-2.46 l 6.81,4.77 11.13,-14.84 a 1.5,1.5 0 1 1 2.4,1.8 L 89.24,94.86 a 1.92,1.92 0 0 1 -1.54,0.78 z"
       class="cls-2" />
  </g>
</svg>
