<?xml version="1.0" encoding="UTF-8" standalone="no"?>
<svg
   xmlns:dc="http://purl.org/dc/elements/1.1/"
   xmlns:cc="http://creativecommons.org/ns#"
   xmlns:rdf="http://www.w3.org/1999/02/22-rdf-syntax-ns#"
   xmlns:svg="http://www.w3.org/2000/svg"
   xmlns="http://www.w3.org/2000/svg"
   xmlns:sodipodi="http://sodipodi.sourceforge.net/DTD/sodipodi-0.dtd"
   xmlns:inkscape="http://www.inkscape.org/namespaces/inkscape"
   viewBox="0 0 750.45 561.75"
   version="1.1"
   id="svg110"
   sodipodi:docname="page_findfind.svg"
   inkscape:version="0.92.5 (2060ec1f9f, 2020-04-08)">
  <metadata
     id="metadata114">
    <rdf:RDF>
      <cc:Work
         rdf:about="">
        <dc:format>image/svg+xml</dc:format>
        <dc:type
           rdf:resource="http://purl.org/dc/dcmitype/StillImage" />
      </cc:Work>
    </rdf:RDF>
  </metadata>
  <sodipodi:namedview
     pagecolor="#ffffff"
     bordercolor="#666666"
     borderopacity="1"
     objecttolerance="10"
     gridtolerance="10"
     guidetolerance="10"
     inkscape:pageopacity="0"
     inkscape:pageshadow="2"
     inkscape:window-width="1920"
     inkscape:window-height="1016"
     id="namedview112"
     showgrid="false"
     inkscape:zoom="0.59413333"
     inkscape:cx="-178.28113"
     inkscape:cy="237.13283"
     inkscape:window-x="0"
     inkscape:window-y="27"
     inkscape:window-maximized="1"
     inkscape:current-layer="svg110" />
  <defs
     id="defs4">
    <style
       id="style2">.cls-1{fill:#fff;}.cls-2{fill:#e8f0f9;}.cls-3{fill:#314e5d;}.cls-4{fill:#4ed9ff;}.cls-5{fill:#1dcdff;}.cls-6{fill:#1ab5e1;}.cls-7{fill:#dceaef;}.cls-8{fill:#ced5d8;}.cls-9{fill:#eea248;}.cls-10{opacity:0.5;}.cls-11{fill:#8bddeb;}.cls-12{fill:#62d6f8;}.cls-13{fill:#e7e7e7;}.cls-14{fill:#ced0d0;}.cls-15{fill:#426372;}</style>
  </defs>
  <title
     id="title6">Asset 100</title>
  <g
     id="g96">
    <path
       style="fill:#4ed9ff"
       inkscape:connector-curvature="0"
       id="path18"
       d="m 378.32,299.42 c -54.4,3.26 -130,0.11 -176.91,12.1 -22.27,5.68 -27.76,16.7 -31.35,25.81 l 0.07,-25.51 c 0,-3.27 0.31,-6.83 6.22,-9.33 7.31,-3.08 20.14,-3.32 31.44,-3.31 55.48,0.02 116.15,-2.18 170.53,0.24 z"
       class="cls-4" />
    <rect
       style="fill:#1dcdff"
       id="rect22"
       ry="25.33"
       rx="25.33"
       height="520.84998"
       width="577.38"
       y="3.3800001"
       x="96.400002"
       class="cls-5" />
    <path
       style="fill:#1ab5e1"
       inkscape:connector-curvature="0"
       id="path24"
       d="M 673.78,329.38 V 493 c 0,17.23 -12.38,31.19 -27.65,31.19 H 124 c -15.27,0 -27.65,-14 -27.65,-31.19 v -94.62 c 35.2,26.08 75.27,43.68 116.36,54.61 49.62,13.21 100.85,17.07 151.83,17.63 60.94,0.69 122.92,-3.45 180.3,-26.6 52.66,-21.22 101.42,-60.24 128.94,-114.64 z"
       class="cls-6" />
    <path
       style="fill:#4ed9ff"
       inkscape:connector-curvature="0"
       id="path26"
       d="M 305.15,4.69 C 250.76,15 175.21,5.05 128.26,42.89 106,60.83 100.51,95.62 96.92,124.39 L 97,43.86 C 97,33.55 97.31,22.28 103.22,14.41 110.53,4.69 123.36,3.94 134.65,3.94 190.11,4 250.77,-2.82 305.15,4.69 Z"
       class="cls-4" />
    <path
       style="fill:#314e5d"
       inkscape:connector-curvature="0"
       id="path28"
       d="M 647.91,528.85 H 121.18 A 29.36,29.36 0 0 1 91.85,499.52 V 29.33 A 29.36,29.36 0 0 1 121.18,0 h 526.73 a 29.36,29.36 0 0 1 29.33,29.33 v 470.2 a 29.36,29.36 0 0 1 -29.33,29.32 z M 121.18,8 A 21.35,21.35 0 0 0 99.85,29.33 v 470.2 a 21.35,21.35 0 0 0 21.33,21.33 h 526.73 a 21.35,21.35 0 0 0 21.33,-21.33 V 29.33 A 21.35,21.35 0 0 0 647.91,8 Z"
       class="cls-3" />
    <rect
       style="fill:#ffffff"
       id="rect30"
       ry="15.86"
       rx="15.86"
       height="448.47"
       width="475.14001"
       y="36.959999"
       x="148.69"
       class="cls-1" />
    <path
       style="fill:#dceaef"
       inkscape:connector-curvature="0"
       id="path32"
       d="m 623.07,49.68 v 87.08 H 147.9 V 49.68 c 0,-6.68 6.8,-12.1 15.19,-12.1 h 444.79 c 8.39,0 15.19,5.42 15.19,12.1 z"
       class="cls-7" />
    <path
       style="fill:#314e5d"
       inkscape:connector-curvature="0"
       id="path34"
       d="M 607.4,491.92 H 164 a 19.88,19.88 0 0 1 -19.86,-19.86 v -420 A 19.88,19.88 0 0 1 164,32.21 h 443.4 a 19.88,19.88 0 0 1 19.86,19.86 v 420 A 19.88,19.88 0 0 1 607.4,491.92 Z M 164,40.21 a 11.88,11.88 0 0 0 -11.86,11.86 v 420 A 11.88,11.88 0 0 0 164,483.92 h 443.4 a 11.88,11.88 0 0 0 11.86,-11.86 v -420 A 11.88,11.88 0 0 0 607.4,40.21 Z"
       class="cls-3" />
    <rect
       style="fill:#ffffff"
       id="rect36"
       height="17.459999"
       width="202.09"
       y="95.589996"
       x="201.50999"
       class="cls-1" />
    <rect
       style="fill:#ced5d8"
       id="rect38"
       transform="scale(-1)"
       height="4.1500001"
       width="98.870003"
       y="-179.73"
       x="-294.07999"
       class="cls-8" />
    <rect
       style="fill:#ced5d8"
       id="rect40"
       transform="scale(-1)"
       height="4.1500001"
       width="215.19"
       y="-188.87"
       x="-410.39999"
       class="cls-8" />
    <rect
       style="fill:#ced5d8"
       id="rect42"
       transform="scale(-1)"
       height="4.1500001"
       width="98.870003"
       y="-198.00999"
       x="-294.07999"
       class="cls-8" />
    <rect
       style="fill:#ced5d8"
       id="rect44"
       transform="scale(-1)"
       height="4.1500001"
       width="215.19"
       y="-207.14999"
       x="-410.39999"
       class="cls-8" />
    <rect
       style="fill:#ced5d8"
       id="rect46"
       transform="scale(-1)"
       height="4.1500001"
       width="98.870003"
       y="-216.28999"
       x="-294.07999"
       class="cls-8" />
    <rect
       style="fill:#ced5d8"
       id="rect48"
       transform="scale(-1)"
       height="4.1500001"
       width="215.19"
       y="-225.42"
       x="-410.39999"
       class="cls-8" />
    <rect
       style="fill:#ced5d8"
       id="rect50"
       transform="scale(-1)"
       height="4.1500001"
       width="98.870003"
       y="-262.32001"
       x="-294.07999"
       class="cls-8" />
    <rect
       style="fill:#ced5d8"
       id="rect52"
       transform="scale(-1)"
       height="4.1500001"
       width="215.19"
       y="-271.46002"
       x="-410.39999"
       class="cls-8" />
    <rect
       style="fill:#ced5d8"
       id="rect54"
       transform="scale(-1)"
       height="4.1500001"
       width="98.870003"
       y="-280.60001"
       x="-294.07999"
       class="cls-8" />
    <rect
       style="fill:#ced5d8"
       id="rect56"
       transform="scale(-1)"
       height="4.1500001"
       width="215.19"
       y="-289.74002"
       x="-410.39999"
       class="cls-8" />
    <rect
       style="fill:#ced5d8"
       id="rect58"
       transform="scale(-1)"
       height="4.1500001"
       width="98.870003"
       y="-298.88"
       x="-294.07999"
       class="cls-8" />
    <rect
       style="fill:#ced5d8"
       id="rect60"
       transform="scale(-1)"
       height="4.1500001"
       width="215.19"
       y="-308.01001"
       x="-410.39999"
       class="cls-8" />
    <rect
       style="fill:#ced5d8"
       id="rect62"
       transform="scale(-1)"
       height="4.1500001"
       width="98.870003"
       y="-344.91"
       x="-294.07999"
       class="cls-8" />
    <rect
       style="fill:#ced5d8"
       id="rect64"
       transform="scale(-1)"
       height="4.1500001"
       width="215.19"
       y="-354.04999"
       x="-410.39999"
       class="cls-8" />
    <rect
       style="fill:#ced5d8"
       id="rect66"
       transform="scale(-1)"
       height="4.1500001"
       width="98.870003"
       y="-363.19"
       x="-294.07999"
       class="cls-8" />
    <rect
       style="fill:#ced5d8"
       id="rect68"
       transform="scale(-1)"
       height="4.1500001"
       width="215.19"
       y="-372.32999"
       x="-410.39999"
       class="cls-8" />
    <rect
       style="fill:#ced5d8"
       id="rect70"
       transform="scale(-1)"
       height="4.1500001"
       width="98.870003"
       y="-381.47"
       x="-294.07999"
       class="cls-8" />
    <rect
       style="fill:#ced5d8"
       id="rect72"
       transform="scale(-1)"
       height="4.1500001"
       width="215.19"
       y="-390.59998"
       x="-410.39999"
       class="cls-8" />
    <rect
       style="fill:#eea248"
       id="rect74"
       transform="scale(-1)"
       height="8.7299995"
       width="74.220001"
       y="-64.919998"
       x="-603.17999"
       class="cls-9" />
    <rect
       style="fill:#eea248"
       id="rect76"
       transform="scale(-1)"
       height="8.7299995"
       width="74.220001"
       y="-64.919998"
       x="-518.71997"
       class="cls-9" />
    <circle
       style="fill:#eea248"
       id="circle78"
       r="8.4200001"
       cy="60.549999"
       cx="171.50999"
       class="cls-9" />
    <rect
       style="fill:#314e5d"
       id="rect80"
       transform="rotate(-43.48)"
       height="79.169998"
       width="37"
       y="595.85071"
       x="44.555779"
       class="cls-3" />
    <g
       style="opacity:0.5"
       id="g86"
       class="cls-10">
      <circle
         style="fill:#8bddeb"
         id="circle82"
         transform="rotate(-43.48,385.80965,313.8063)"
         r="87.309998"
         cy="313.79999"
         cx="385.82001"
         class="cls-11" />
      <path
         style="fill:#62d6f8"
         inkscape:connector-curvature="0"
         id="path84"
         d="m 339.8,364.25 a 87.26,87.26 0 0 1 16,-133.39 87.31,87.31 0 1 0 77.46,155.29 87.32,87.32 0 0 1 -93.46,-21.9 z"
         class="cls-12" />
    </g>
    <path
       style="fill:#e7e7e7"
       inkscape:connector-curvature="0"
       id="path88"
       d="m 481.1,220.58 a 134.19,134.19 0 0 0 -32.65,-25.27 c -0.21,-0.13 -0.42,-0.24 -0.65,-0.35 A 134.46,134.46 0 0 0 285,404.58 c 0.31,0.35 0.63,0.69 1,1 a 134,134 0 0 0 34.25,26.13 l 0.36,0.19 A 134.46,134.46 0 0 0 481.1,220.58 Z m -32.89,33.14 a 87.31,87.31 0 1 1 -123.43,-3.27 87.3,87.3 0 0 1 123.43,3.28 z"
       class="cls-13" />
    <path
       style="fill:#ced0d0"
       inkscape:connector-curvature="0"
       id="path90"
       d="M 490.53,391.42 A 134.46,134.46 0 0 1 276.94,235.35 134.47,134.47 0 1 0 506.36,373.52 135.26,135.26 0 0 1 490.53,391.42 Z"
       class="cls-14" />
    <path
       style="fill:#314e5d"
       inkscape:connector-curvature="0"
       id="path92"
       d="m 384.66,452.27 a 137.49,137.49 0 0 1 -65.89,-16.78 l -0.5,-0.27 a 138.94,138.94 0 0 1 -63.44,-73.81 c -0.26,-0.68 -0.51,-1.39 -0.74,-2.12 A 138.48,138.48 0 0 1 449.61,191.4 c 0.27,0.13 0.54,0.28 0.8,0.43 a 138.47,138.47 0 0 1 -48.53,259.38 141,141 0 0 1 -17.22,1.06 z m 0.23,-269 A 130.54,130.54 0 0 0 261.65,356.72 v 0.12 c 0.19,0.6 0.41,1.2 0.63,1.79 a 130.92,130.92 0 0 0 59.83,69.61 l 0.35,0.19 A 130.45,130.45 0 0 0 479.51,224 v 0 a 129.86,129.86 0 0 0 -32.95,-25.2 l -0.15,-0.09 -0.32,-0.17 -0.15,-0.08 A 130.15,130.15 0 0 0 384.89,183.3 Z m 0,221.81 c -0.83,0 -1.65,0 -2.48,0 a 91.2,91.2 0 1 1 2.48,0 z m -0.11,-174.62 a 82.74,82.74 0 0 0 -57.27,22.86 v 0 a 83.3,83.3 0 1 0 59.54,-22.83 q -1.11,0 -2.24,0 z"
       class="cls-3" />
    <rect
       style="fill:#426372"
       id="rect94"
       transform="rotate(-43.48)"
       ry="28.440001"
       rx="28.440001"
       height="174.39"
       width="56.889999"
       y="644.84991"
       x="36.213768"
       class="cls-15" />
    <path
       style="fill:#314e5d"
       inkscape:connector-curvature="0"
       id="path96"
       d="M 589.89,561.75 H 589 A 32.21,32.21 0 0 1 566.32,551.68 L 485.47,466.4 a 32.44283,32.44283 0 1 1 47.08,-44.65 L 613.41,507 a 32.52,32.52 0 0 1 -1.22,45.86 v 0 a 32.19,32.19 0 0 1 -22.3,8.89 z M 509,419.65 a 24.46,24.46 0 0 0 -17.73,41.25 l 80.85,85.26 a 24.53,24.53 0 0 0 34.56,0.92 v 0 a 24.53,24.53 0 0 0 0.92,-34.56 L 526.75,427.26 A 24.38,24.38 0 0 0 509,419.65 Z"
       class="cls-3" />
    <g
       style="opacity:0.5"
       id="g102"
       class="cls-10">
      <path
         style="fill:#ffffff"
         inkscape:connector-curvature="0"
         id="path98"
         d="m 517.9,434.08 c 10,8.4 17.73,18.85 27.07,27.89 2.78,2.69 7,-1.55 4.24,-4.24 -9.34,-9 -17.07,-19.49 -27.07,-27.89 -2.94,-2.47 -7.2,1.75 -4.24,4.24 z"
         class="cls-1" />
      <path
         style="fill:#ffffff"
         inkscape:connector-curvature="0"
         id="path100"
         d="m 500.64,432.19 a 12.83,12.83 0 0 1 10.83,-1.26 c 3.71,1.08 5.3,-4.71 1.6,-5.79 A 18.87,18.87 0 0 0 497.61,427 c -3.31,2 -0.3,7.17 3,5.18 z"
         class="cls-1" />
    </g>
    <path
       style="fill:#ffffff"
       inkscape:connector-curvature="0"
       id="path104"
       d="m 418.05,204.15 c 15.95,4.85 30.95,12.61 43.41,23.68 15.82,14 26.58,32.38 33.16,52.34 1.2,3.65 7,2.09 5.79,-1.6 -6.89,-20.9 -18.13,-40.29 -34.7,-55 -13.28,-11.78 -29.14,-20 -46.05,-25.22 -3.7,-1.13 -5.28,4.66 -1.6,5.79 z"
       class="cls-1" />
    <path
       style="fill:#ffffff"
       inkscape:connector-curvature="0"
       id="path106"
       d="m 359.78,198.58 c 10.43,-1.38 21.24,-0.87 31.66,0.19 3.84,0.39 3.81,-5.61 0,-6 -10.42,-1.06 -21.23,-1.57 -31.66,-0.19 -3.77,0.5 -3.82,6.51 0,6 z"
       class="cls-1" />
  </g>
</svg>
