<?xml version="1.0" encoding="UTF-8" standalone="no"?>
<svg
   xmlns:dc="http://purl.org/dc/elements/1.1/"
   xmlns:cc="http://creativecommons.org/ns#"
   xmlns:rdf="http://www.w3.org/1999/02/22-rdf-syntax-ns#"
   xmlns:svg="http://www.w3.org/2000/svg"
   xmlns="http://www.w3.org/2000/svg"
   xmlns:sodipodi="http://sodipodi.sourceforge.net/DTD/sodipodi-0.dtd"
   xmlns:inkscape="http://www.inkscape.org/namespaces/inkscape"
   viewBox="0 0 750.45 557.31"
   version="1.1"
   id="svg112"
   sodipodi:docname="simple.svg"
   inkscape:version="0.92.5 (2060ec1f9f, 2020-04-08)">
  <metadata
     id="metadata116">
    <rdf:RDF>
      <cc:Work
         rdf:about="">
        <dc:format>image/svg+xml</dc:format>
        <dc:type
           rdf:resource="http://purl.org/dc/dcmitype/StillImage" />
      </cc:Work>
    </rdf:RDF>
  </metadata>
  <sodipodi:namedview
     pagecolor="#ffffff"
     bordercolor="#666666"
     borderopacity="1"
     objecttolerance="10"
     gridtolerance="10"
     guidetolerance="10"
     inkscape:pageopacity="0"
     inkscape:pageshadow="2"
     inkscape:window-width="1920"
     inkscape:window-height="1016"
     id="namedview114"
     showgrid="false"
     inkscape:zoom="0.42346271"
     inkscape:cx="-52.203417"
     inkscape:cy="269.20907"
     inkscape:window-x="0"
     inkscape:window-y="27"
     inkscape:window-maximized="1"
     inkscape:current-layer="svg112" />
  <defs
     id="defs4">
    <style
       id="style2">.cls-1{fill:#1dcdff;}.cls-2{fill:#1ab5e1;}.cls-3{fill:#4ed9ff;}.cls-4{fill:none;stroke:#314e5d;stroke-miterlimit:10;stroke-width:8px;}.cls-5{fill:#fff;}.cls-6{fill:#dceaef;}.cls-7{fill:#eea248;}.cls-8{fill:#426372;}</style>
  </defs>
  <title
     id="title6">Asset 90</title>
  <g
     id="g96">
    <path
       style="fill:#4ed9ff"
       inkscape:connector-curvature="0"
       id="path20"
       d="m 378.32,317.5 c -54.4,3.26 -130,0.11 -176.91,12.1 -22.27,5.68 -27.76,16.7 -31.35,25.81 l 0.07,-25.51 c 0,-3.27 0.31,-6.83 6.22,-9.33 7.31,-3.08 20.14,-3.32 31.44,-3.31 55.48,0.01 116.15,-2.15 170.53,0.24 z"
       class="cls-3" />
    <rect
       style="fill:#ffffff"
       id="rect24"
       ry="15.86"
       rx="15.86"
       height="545.37"
       width="577.79999"
       y="4.9099998"
       x="88.25"
       class="cls-5" />
    <path
       style="fill:#dceaef"
       inkscape:connector-curvature="0"
       id="path26"
       d="m 668.55,26.89 v 80.33 H 90.76 V 26.89 c 0,-13.36 7.1,-24.21 15.86,-24.21 h 546.07 c 8.76,0 15.86,10.85 15.86,24.21 z"
       class="cls-6" />
    <rect
       style="fill:none;stroke:#314e5d;stroke-width:8px;stroke-miterlimit:10"
       id="rect28"
       ry="15.86"
       rx="15.86"
       height="549.31"
       width="577.79999"
       y="4"
       x="87.559998"
       class="cls-4" />
    <circle
       style="fill:#eea248"
       id="circle30"
       r="12"
       cy="60.220001"
       cx="142"
       class="cls-7" />
    <circle
       style="fill:#eea248"
       id="circle32"
       r="12"
       cy="60.220001"
       cx="181"
       class="cls-7" />
    <circle
       style="fill:#eea248"
       id="circle34"
       r="12"
       cy="60.220001"
       cx="220"
       class="cls-7" />
    <path
       style="fill:#426372"
       inkscape:connector-curvature="0"
       id="path36"
       d="m 194.83,224.88 c 0,-11.44 3.92,-17.86 11.44,-17.86 7.52,0 11.44,6.42 11.44,17.86 0,11.44 -3.92,17.91 -11.44,17.91 -7.52,0 -11.44,-6.42 -11.44,-17.91 z m 18.12,0 c 0,-10.09 -2.45,-14.2 -6.67,-14.2 -4.22,0 -6.67,4.11 -6.67,14.2 0,10.09 2.51,14.25 6.67,14.25 4.16,0 6.67,-4.13 6.67,-14.25 z m -6.68,-3.26 a 3.29,3.29 0 1 1 -3.26,3.26 3.24,3.24 0 0 1 3.26,-3.26 z"
       class="cls-8" />
    <path
       style="fill:#426372"
       inkscape:connector-curvature="0"
       id="path38"
       d="m 236.2,212.69 -8.28,5 -2.21,-3.21 11,-6.88 h 4.06 v 30.86 h 7.07 v 3.72 h -20.11 v -3.72 h 8.48 v -25.77 z"
       class="cls-8" />
    <path
       style="fill:#426372"
       inkscape:connector-curvature="0"
       id="path40"
       d="m 305.11,212.29 2.21,3.46 -17.56,10.74 17.56,10.78 -2.41,3.37 -19.13,-11.94 v -4.46 z"
       class="cls-8" />
    <path
       style="fill:#426372"
       inkscape:connector-curvature="0"
       id="path42"
       d="M 332.89,242.19 V 226 h -12.55 v 16.2 h -4.76 v -34.57 h 4.76 v 14.45 h 12.54 v -14.45 h 4.76 v 34.57 z"
       class="cls-8" />
    <path
       style="fill:#426372"
       inkscape:connector-curvature="0"
       id="path44"
       d="m 359,211.64 v 30.56 h -4.76 v -30.56 h -10.68 v -4 h 26.29 l -0.5,4 z"
       class="cls-8" />
    <path
       style="fill:#426372"
       inkscape:connector-curvature="0"
       id="path46"
       d="m 395.87,242.19 -1,-17.71 c -0.25,-4.87 -0.25,-10.48 -0.2,-11.59 h -0.16 L 389,236 h -4.57 l -5.72,-23.13 h -0.2 c 0,1.15 0.1,7.13 -0.1,11.59 l -0.85,17.71 h -4.41 l 2,-34.57 h 6.32 l 5.32,23.08 h 0.2 l 5.07,-23.08 h 6.37 l 2,34.57 z"
       class="cls-8" />
    <path
       style="fill:#426372"
       inkscape:connector-curvature="0"
       id="path48"
       d="m 408.39,242.19 v -34.56 h 4.76 V 238 h 15.7 l -0.55,4.16 z"
       class="cls-8" />
    <path
       style="fill:#426372"
       inkscape:connector-curvature="0"
       id="path50"
       d="m 457.75,224.23 v 4.46 l -19.12,11.94 -2.41,-3.37 17.56,-10.78 -17.56,-10.74 2.21,-3.46 z"
       class="cls-8" />
    <path
       style="fill:#426372"
       inkscape:connector-curvature="0"
       id="path52"
       d="m 194.83,285.06 c 0,-11.44 3.92,-17.86 11.44,-17.86 7.52,0 11.44,6.42 11.44,17.86 0,11.44 -3.92,17.94 -11.44,17.94 -7.52,0 -11.44,-6.46 -11.44,-17.94 z m 18.12,0 c 0,-10.09 -2.45,-14.2 -6.67,-14.2 -4.22,0 -6.67,4.11 -6.67,14.2 0,10.09 2.51,14.25 6.67,14.25 4.16,0 6.67,-4.12 6.67,-14.25 z m -6.68,-3.26 a 3.29,3.29 0 1 1 -3.26,3.26 3.24,3.24 0 0 1 3.26,-3.27 z"
       class="cls-8" />
    <path
       style="fill:#426372"
       inkscape:connector-curvature="0"
       id="path54"
       d="m 230.89,298.5 h 15.7 l -0.55,3.86 h -20.57 v -3.66 c 11.94,-11.84 15.61,-16.61 15.61,-21.83 a 5.49,5.49 0 0 0 -5.87,-5.82 c -2.86,0 -4.82,1.06 -6.93,3.71 l -3.21,-2.26 c 2.71,-3.36 6.12,-5.32 10.39,-5.32 6.32,0 10.39,4 10.39,9.54 -0.01,6.03 -4.78,12.05 -14.96,21.78 z"
       class="cls-8" />
    <path
       style="fill:#426372"
       inkscape:connector-curvature="0"
       id="path56"
       d="m 305.11,272.46 2.21,3.46 -17.56,10.74 17.56,10.78 -2.41,3.37 -19.12,-11.94 v -4.47 z"
       class="cls-8" />
    <path
       style="fill:#426372"
       inkscape:connector-curvature="0"
       id="path58"
       d="m 325.71,302.37 h -9.53 V 267.8 H 325 c 6.17,0 12.35,2 12.35,8.73 a 7.35,7.35 0 0 1 -6,7.38 v 0.2 c 3.46,0.65 7.53,2.66 7.53,8.38 -0.08,7.57 -6.7,9.88 -13.17,9.88 z m 0.1,-30.81 h -4.87 v 10.83 h 5.27 c 4,0 6.23,-1.66 6.23,-5.57 0,-3.91 -2.51,-5.26 -6.63,-5.26 z m 0.75,14.65 h -5.62 v 12.3 h 5.42 c 3.37,0 7.43,-1 7.43,-5.92 0,-4.92 -3.26,-6.38 -7.23,-6.38 z"
       class="cls-8" />
    <path
       style="fill:#426372"
       inkscape:connector-curvature="0"
       id="path60"
       d="m 356.7,303 c -8.48,0 -12.84,-7.07 -12.84,-17.81 0,-10.53 4.36,-18 12.84,-18 8.48,0 12.84,7.18 12.84,17.91 0.01,10.54 -4.37,17.9 -12.84,17.9 z m 0,-31.86 c -5.62,0 -7.88,4.92 -7.88,14 0,9.08 2.41,13.9 7.88,13.9 5.62,0 7.87,-4.82 7.87,-14 0,-9.18 -2.25,-13.94 -7.87,-13.94 z"
       class="cls-8" />
    <path
       style="fill:#426372"
       inkscape:connector-curvature="0"
       id="path62"
       d="m 383.82,302.37 h -8.08 V 267.8 h 7.53 c 8.18,0 16.3,2.76 16.3,17.11 0,14.35 -8.42,17.46 -15.75,17.46 z m 0.51,-30.75 h -3.81 v 27 h 3.86 c 4.92,0 10.13,-2.51 10.13,-13.69 0,-11.76 -5.51,-13.32 -10.18,-13.32 z"
       class="cls-8" />
    <path
       style="fill:#426372"
       inkscape:connector-curvature="0"
       id="path64"
       d="m 419.28,289.07 v 13.3 h -4.82 v -13.25 l -11.64,-21.33 h 5.27 l 8.84,16.9 h 0.16 l 8.88,-16.9 h 5 z"
       class="cls-8" />
    <path
       style="fill:#426372"
       inkscape:connector-curvature="0"
       id="path66"
       d="m 457.75,284.4 v 4.46 l -19.12,11.94 -2.41,-3.37 17.56,-10.78 -17.56,-10.74 2.21,-3.46 z"
       class="cls-8" />
    <path
       style="fill:#426372"
       inkscape:connector-curvature="0"
       id="path68"
       d="m 194.83,345.23 c 0,-11.44 3.92,-17.86 11.44,-17.86 7.52,0 11.44,6.42 11.44,17.86 0,11.44 -3.92,17.91 -11.44,17.91 -7.52,0 -11.44,-6.42 -11.44,-17.91 z m 18.12,0 c 0,-10.09 -2.45,-14.2 -6.67,-14.2 -4.22,0 -6.67,4.11 -6.67,14.2 0,10.09 2.51,14.25 6.67,14.25 4.16,0 6.67,-4.12 6.67,-14.25 z M 206.27,342 a 3.29,3.29 0 1 1 -3.26,3.26 3.24,3.24 0 0 1 3.26,-3.26 z"
       class="cls-8" />
    <path
       style="fill:#426372"
       inkscape:connector-curvature="0"
       id="path70"
       d="m 235,363.14 a 13.83,13.83 0 0 1 -10.78,-4.66 l 3,-2.51 a 9.93,9.93 0 0 0 7.62,3.41 c 4.66,0 7.48,-2.61 7.48,-6.83 0,-4.82 -3,-6.42 -7,-6.42 h -2.66 l 0.55,-3.56 H 235 c 3.31,0 6.42,-1.85 6.42,-5.87 0,-3.67 -2.81,-5.68 -6.37,-5.68 -3,0 -5,1.06 -7.27,3.16 l -2.51,-2.76 a 14.17,14.17 0 0 1 10,-4.07 c 6.62,0 10.74,4 10.74,8.68 a 8.14,8.14 0 0 1 -6.57,8 v 0.2 a 8.07,8.07 0 0 1 7.68,8.38 c 0.02,5.96 -4.85,10.53 -12.12,10.53 z"
       class="cls-8" />
    <path
       style="fill:#426372"
       inkscape:connector-curvature="0"
       id="path72"
       d="m 305.11,332.63 2.21,3.46 -17.56,10.74 17.56,10.78 -2.42,3.39 -19.12,-12 v -4.46 z"
       class="cls-8" />
    <path
       style="fill:#426372"
       inkscape:connector-curvature="0"
       id="path74"
       d="m 332.89,362.54 v -16.2 h -12.55 v 16.2 h -4.76 V 328 h 4.76 v 14.45 h 12.54 V 328 h 4.76 v 34.57 h -4.76 z"
       class="cls-8" />
    <path
       style="fill:#426372"
       inkscape:connector-curvature="0"
       id="path76"
       d="m 352,331.77 v 11.29 h 12.74 v 3.81 H 352 v 11.89 h 15.61 v 3.76 H 347.27 V 328 h 20 l -0.55,3.81 z"
       class="cls-8" />
    <path
       style="fill:#426372"
       inkscape:connector-curvature="0"
       id="path78"
       d="M 393.31,353.86 H 380 l -2.66,8.68 h -4.76 L 383.77,328 h 6 L 401,362.54 h -5 z M 381.17,350 h 11 l -5.37,-17.71 h -0.2 z"
       class="cls-8" />
    <path
       style="fill:#426372"
       inkscape:connector-curvature="0"
       id="path80"
       d="m 413.91,362.54 h -8.08 V 328 h 7.53 c 8.18,0 16.3,2.76 16.3,17.11 0,14.35 -8.43,17.43 -15.75,17.43 z m 0.5,-30.76 h -3.81 v 27 h 3.86 c 4.92,0 10.13,-2.51 10.13,-13.69 0.01,-11.75 -5.46,-13.32 -10.18,-13.32 z"
       class="cls-8" />
    <path
       style="fill:#426372"
       inkscape:connector-curvature="0"
       id="path82"
       d="m 442.29,331.77 v 11.29 H 455 v 3.81 h -12.71 v 11.89 h 15.61 v 3.76 H 437.53 V 328 h 20 l -0.55,3.81 z"
       class="cls-8" />
    <path
       style="fill:#426372"
       inkscape:connector-curvature="0"
       id="path84"
       d="m 480.81,347.29 10.13,15.25 h -5.67 L 476,347.89 h -4.41 v 14.65 h -4.76 V 328 h 9.08 c 8.63,0 13.14,3.3 13.14,9.78 0.03,5.14 -3.58,8.3 -8.24,9.51 z m -4.42,-15.61 h -4.76 v 12.54 h 4.82 c 4.82,0 7.57,-1.8 7.57,-6.47 -0.02,-4.32 -2.47,-6.07 -7.64,-6.07 z"
       class="cls-8" />
    <path
       style="fill:#426372"
       inkscape:connector-curvature="0"
       id="path86"
       d="M 517.92,344.58 V 349 l -19.12,12 -2.41,-3.37 17.56,-10.78 -17.56,-10.74 2.21,-3.46 z"
       class="cls-8" />
    <path
       style="fill:#426372"
       inkscape:connector-curvature="0"
       id="path88"
       d="m 194.83,405.4 c 0,-11.44 3.92,-17.86 11.44,-17.86 7.52,0 11.43,6.46 11.43,17.86 0,11.4 -3.92,17.91 -11.44,17.91 -7.52,0 -11.43,-6.42 -11.43,-17.91 z m 18.12,0 c 0,-10.09 -2.45,-14.2 -6.67,-14.2 -4.22,0 -6.67,4.11 -6.67,14.2 0,10.09 2.51,14.25 6.67,14.25 4.16,0 6.67,-4.12 6.67,-14.25 z m -6.68,-3.26 a 3.29,3.29 0 1 1 -3.27,3.26 3.24,3.24 0 0 1 3.27,-3.26 z"
       class="cls-8" />
    <path
       style="fill:#426372"
       inkscape:connector-curvature="0"
       id="path90"
       d="m 243.38,414.43 v 8.28 h -4.46 v -8.28 h -14.15 v -3.26 l 10.13,-23.64 3.86,1.61 -9.14,21.63 h 9.28 l 0.46,-9 h 4 v 9 h 4.36 v 3.67 z"
       class="cls-8" />
    <path
       style="fill:#426372"
       inkscape:connector-curvature="0"
       id="path92"
       d="m 305.11,392.8 2.21,3.46 -17.56,10.74 17.56,10.78 -2.41,3.37 -19.12,-11.94 v -4.46 z"
       class="cls-8" />
    <path
       style="fill:#426372"
       inkscape:connector-curvature="0"
       id="path94"
       d="m 317.79,427.93 -3.72,-1.66 21.42,-44.2 3.67,1.76 z"
       class="cls-8" />
    <path
       style="fill:#426372"
       inkscape:connector-curvature="0"
       id="path96"
       d="m 363,422.71 v -16.2 h -12.58 v 16.2 h -4.76 v -34.57 h 4.76 v 14.45 H 363 v -14.45 h 4.76 v 34.57 z"
       class="cls-8" />
    <path
       style="fill:#426372"
       inkscape:connector-curvature="0"
       id="path98"
       d="m 382.12,392 v 11.29 h 12.74 v 3.81 h -12.74 v 11.89 h 15.61 v 3.76 h -20.37 v -34.61 h 20 l -0.55,3.81 z"
       class="cls-8" />
    <path
       style="fill:#426372"
       inkscape:connector-curvature="0"
       id="path100"
       d="m 423.39,414 h -13.3 l -2.66,8.68 h -4.76 l 11.19,-34.57 h 6 l 11.19,34.57 h -5 z m -12.14,-3.86 h 11 l -5.37,-17.71 h -0.21 z"
       class="cls-8" />
    <path
       style="fill:#426372"
       inkscape:connector-curvature="0"
       id="path102"
       d="m 444,422.71 h -8.08 v -34.57 h 7.53 c 8.18,0 16.3,2.76 16.3,17.11 0,14.35 -8.42,17.46 -15.75,17.46 z M 444.5,392 h -3.81 v 27 h 3.86 c 4.92,0 10.13,-2.51 10.13,-13.69 0,-11.8 -5.47,-13.31 -10.18,-13.31 z"
       class="cls-8" />
    <path
       style="fill:#426372"
       inkscape:connector-curvature="0"
       id="path104"
       d="m 472.37,392 v 11.29 h 12.74 v 3.81 h -12.74 v 11.89 H 488 v 3.76 h -20.39 v -34.61 h 20 L 487,392 Z"
       class="cls-8" />
    <path
       style="fill:#426372"
       inkscape:connector-curvature="0"
       id="path106"
       d="M 510.89,407.45 521,422.71 h -5.67 l -9.23,-14.65 h -4.42 v 14.65 h -4.76 V 388.14 H 506 c 8.63,0 13.14,3.3 13.14,9.78 0.03,5.17 -3.58,8.33 -8.25,9.53 z m -4.41,-15.6 h -4.76 v 12.55 h 4.82 c 4.82,0 7.57,-1.8 7.57,-6.47 -0.01,-4.32 -2.47,-6.08 -7.64,-6.08 z"
       class="cls-8" />
    <path
       style="fill:#426372"
       inkscape:connector-curvature="0"
       id="path108"
       d="m 548,404.75 v 4.46 l -19.12,11.94 -2.41,-3.37 L 544,407 l -17.56,-10.74 2.21,-3.46 z"
       class="cls-8" />
  </g>
</svg>
