<?xml version="1.0" encoding="UTF-8" standalone="no"?>
<svg
   xmlns:dc="http://purl.org/dc/elements/1.1/"
   xmlns:cc="http://creativecommons.org/ns#"
   xmlns:rdf="http://www.w3.org/1999/02/22-rdf-syntax-ns#"
   xmlns:svg="http://www.w3.org/2000/svg"
   xmlns="http://www.w3.org/2000/svg"
   xmlns:sodipodi="http://sodipodi.sourceforge.net/DTD/sodipodi-0.dtd"
   xmlns:inkscape="http://www.inkscape.org/namespaces/inkscape"
   viewBox="0 0 1286.04 813.04"
   version="1.1"
   id="svg151"
   sodipodi:docname="store.svg"
   inkscape:version="0.92.5 (2060ec1f9f, 2020-04-08)">
  <metadata
     id="metadata155">
    <rdf:RDF>
      <cc:Work
         rdf:about="">
        <dc:format>image/svg+xml</dc:format>
        <dc:type
           rdf:resource="http://purl.org/dc/dcmitype/StillImage" />
      </cc:Work>
    </rdf:RDF>
  </metadata>
  <sodipodi:namedview
     pagecolor="#ffffff"
     bordercolor="#666666"
     borderopacity="1"
     objecttolerance="10"
     gridtolerance="10"
     guidetolerance="10"
     inkscape:pageopacity="0"
     inkscape:pageshadow="2"
     inkscape:window-width="1920"
     inkscape:window-height="1016"
     id="namedview153"
     showgrid="false"
     inkscape:zoom="0.41050183"
     inkscape:cx="296.29183"
     inkscape:cy="387.69444"
     inkscape:window-x="0"
     inkscape:window-y="27"
     inkscape:window-maximized="1"
     inkscape:current-layer="svg151" />
  <defs
     id="defs9">
    <style
       id="style2">.cls-1{fill:url(#linear-gradient);}.cls-2{fill:#e7f6ff;}.cls-3{fill:none;}.cls-19,.cls-4{fill:#426572;}.cls-5{fill:#fff;}.cls-6{fill:#ebf0f9;}.cls-13,.cls-7{opacity:0.5;}.cls-8{fill:#bbd2e5;}.cls-9{fill:#87d6fe;}.cls-10{fill:#37b5ff;}.cls-11{fill:#ef4f43;}.cls-12{fill:#e8837e;}.cls-13{fill:#d9e2ef;}.cls-14{fill:#dd3e3a;}.cls-15{fill:#d66765;}.cls-16{fill:#dee6f1;}.cls-17{fill:#a7bcd5;}.cls-18{fill:#070707;opacity:0.1;}.cls-19{opacity:0.3;}</style>
    <linearGradient
       id="linear-gradient"
       x1="1.32"
       y1="441.3"
       x2="1254.6"
       y2="441.3"
       gradientUnits="userSpaceOnUse">
      <stop
         offset="0"
         stop-color="#c5e9fa"
         id="stop4" />
      <stop
         offset="1"
         stop-color="#c4f4ea"
         id="stop6" />
    </linearGradient>
  </defs>
  <title
     id="title11">Asset 14</title>
  <g
     id="g141">
    <path
       style="fill:#e7f6ff"
       inkscape:connector-curvature="0"
       id="path15"
       d="m 1248.42,612.65 a 26.3,26.3 0 0 1 -6.2,-0.75 25.94,25.94 0 1 1 6.2,0.75 z m 0,-40.18 a 14.09,14.09 0 0 0 -3.32,27.77 v 0 a 14.08,14.08 0 1 0 3.32,-27.77 z"
       class="cls-2" />
    <circle
       style="fill:#e7f6ff"
       id="circle17"
       transform="rotate(-76.37)"
       r="11.33"
       cy="1329.7841"
       cx="-333.51978"
       class="cls-2" />
    <path
       style="fill:#e7f6ff"
       inkscape:connector-curvature="0"
       id="path19"
       d="m 55.19,610.18 a 26.09,26.09 0 1 1 1.14,0 z m 0,-40.17 H 54.6 a 14.09,14.09 0 1 0 0.61,0 z"
       class="cls-2" />
    <circle
       style="fill:#e7f6ff"
       id="circle21"
       transform="rotate(-2.47)"
       r="11.33"
       cy="643.60687"
       cx="8.3730249"
       class="cls-2" />
    <path
       style="fill:#e7f6ff"
       inkscape:connector-curvature="0"
       id="path23"
       d="m 709.08,188.38 a 26.06,26.06 0 1 1 14.92,-4.72 26.07,26.07 0 0 1 -14.92,4.72 z M 709,148.21 a 14.14,14.14 0 1 0 2.47,0.22 14.17,14.17 0 0 0 -2.47,-0.22 z"
       class="cls-2" />
    <circle
       style="fill:#e7f6ff"
       id="circle25"
       transform="rotate(-35.04)"
       r="11.33"
       cy="518.31006"
       cx="429.67444"
       class="cls-2" />
    <rect
       style="fill:none"
       id="rect27"
       height="44.48"
       width="44.48"
       y="175.25"
       x="713.35999"
       class="cls-3" />
    <rect
       style="fill:none"
       id="rect29"
       height="44.48"
       width="44.48"
       y="175.25"
       x="713.35999"
       class="cls-3" />
    <path
       style="fill:#426572"
       inkscape:connector-curvature="0"
       id="path31"
       d="M 839.66,794.24"
       class="cls-4" />
    <path
       style="fill:#426572"
       inkscape:connector-curvature="0"
       id="path37"
       d="m 954.18,813 h -596.5 v -13 h 596.5 a 6.5,6.5 0 0 1 0,13 z"
       class="cls-4" />
    <path
       style="fill:#426572"
       inkscape:connector-curvature="0"
       id="path39"
       d="m 331,813 h -36.47 a 6.5,6.5 0 0 1 0,-13 H 331 a 6.5,6.5 0 1 1 0,13 z"
       class="cls-4" />
    <path
       style="fill:#426572"
       inkscape:connector-curvature="0"
       id="path41"
       d="m 270.86,813 h -11.62 a 6.5,6.5 0 0 1 0,-13 h 11.62 a 6.5,6.5 0 0 1 0,13 z"
       class="cls-4" />
    <path
       style="fill:#426572"
       inkscape:connector-curvature="0"
       id="path43"
       d="M 1163.34,813 H 980 v -13 h 183.34 a 6.5,6.5 0 0 1 0,13 z"
       class="cls-4" />
    <path
       style="fill:#426572"
       inkscape:connector-curvature="0"
       id="path45"
       d="M 226,813 H 42.65 V 800 H 226 a 6.5,6.5 0 1 1 0,13 z"
       class="cls-4" />
    <path
       style="fill:#e7f6ff"
       inkscape:connector-curvature="0"
       id="path47"
       d="M 291,61.85 A 23.12,23.12 0 1 1 314.12,38.73 23.15,23.15 0 0 1 291,61.85 Z M 291,27.6 A 11.12,11.12 0 1 0 302.12,38.73 11.14,11.14 0 0 0 291,27.6 Z"
       class="cls-2" />
    <circle
       style="fill:#e7f6ff"
       id="circle49"
       r="9.6599998"
       cy="57.169998"
       cx="340.16"
       class="cls-2" />
    <rect
       style="fill:#ebf0f9"
       id="rect51"
       ry="12"
       rx="12"
       height="578.67999"
       width="468.45001"
       y="200.92999"
       x="429.85001"
       class="cls-6" />
    <g
       style="opacity:0.5"
       id="g55"
       class="cls-7">
      <path
         style="fill:#bbd2e5"
         inkscape:connector-curvature="0"
         id="path53"
         d="m 480.27,561.42 v 21.22 c -6.14,19.53 -15.79,42.36 -28.46,67.56 -5.21,10 -10.8,20.55 -16.77,31.39 4.08,-6.88 8,-13.76 11.8,-20.53 -4.42,8.39 -9.1,17.09 -14,25.95 v -33 q 0.74,-1.38 1.47,-2.76 c -0.49,0.87 -1,1.74 -1.47,2.61 v -1.22 q 3.31,-6.24 6.43,-12.25 c 13.76,-27.36 24,-51.94 30,-72.52 3.68,-2.05 7.36,-4.22 11,-6.45 z"
         class="cls-8" />
    </g>
    <rect
       style="fill:#87d6fe"
       id="rect57"
       height="247.05"
       width="376.16"
       y="459.28"
       x="478.17999"
       class="cls-9" />
    <g
       style="opacity:0.5"
       id="g63"
       class="cls-7">
      <polygon
         style="fill:#37b5ff"
         id="polygon59"
         points="682.27,459.29 604.84,706.33 569.72,706.33 647.15,459.29 "
         class="cls-10" />
      <polygon
         style="fill:#37b5ff"
         id="polygon61"
         points="759.55,459.29 682.11,706.33 617.26,706.33 694.69,459.29 "
         class="cls-10" />
    </g>
    <path
       style="fill:#bbd2e5"
       inkscape:connector-curvature="0"
       id="path65"
       d="m 900.39,222.08 v 209 c -0.24,-0.19 -0.47,-0.39 -0.7,-0.59 a 43.69,43.69 0 0 1 -4,-3.94 c -0.24,-0.26 -0.47,-0.52 -0.7,-0.78 v 2.16 A 44.15,44.15 0 0 1 881.82,407 a 43.41,43.41 0 0 1 -1.67,-12 44.1,44.1 0 0 1 -44,44 43.69,43.69 0 0 1 -24.84,-7.75 q -1.36,-1.09 -2.62,-2.3 c 0.5,0.53 1,1 1.56,1.54 a 44,44 0 0 1 -18.05,-35.45 44.1,44.1 0 0 1 -44,44 44.09,44.09 0 0 1 -44,-44 43.48,43.48 0 0 1 -1,9.15 c -0.24,-1 -0.45,-2.08 -0.6,-3.14 a 43.56,43.56 0 0 1 -6.53,19.33 v 0.07 a 43.82,43.82 0 0 1 -55.92,13.66 44.35,44.35 0 0 1 -23,-30.31 v 0 a 43.71,43.71 0 0 1 -0.89,-8.76 43.71,43.71 0 0 1 -0.89,8.76 v 0 a 44,44 0 0 1 -78.9,16.64 v -0.07 a 43.59,43.59 0 0 1 -6.7,-23.25 43.82,43.82 0 0 1 -0.51,6.66 43.71,43.71 0 0 1 -0.89,-8.76 43.56,43.56 0 0 1 -0.31,5.16 v 0 a 44.12,44.12 0 0 1 -43.6,38.82 43.58,43.58 0 0 1 -20.1,-4.89 44.54,44.54 0 0 1 -15.72,-13.66 v -0.07 a 43.48,43.48 0 0 1 -6,-15.46 c -0.13,0.7 -0.27,1.4 -0.43,2.08 a 43.41,43.41 0 0 1 -1.67,-12 43.64,43.64 0 0 1 -8.54,26 l -0.7,0.93 a 41.7,41.7 0 0 1 -4,4.49 v -202 c 1.55,-0.57 3.12,-1.09 4.72,-1.56 l 1.53,-0.44 c 2.07,-0.59 4.18,-1.1 6.32,-1.53 v -1.17 h 87.93 v 19 h 4.19 v -18.11 h -2.09 v -0.84 H 615 v 14.8 h 0.7 v -14.8 h 86.5 v 19 h 5.58 v -18.16 h -3.49 v -0.84 h 173.77 v 1.17 l 2.09,0.45 v 17.36 h 4.19 v -16.3 a 84.86,84.86 0 0 1 10.66,3.74 l 0.7,0.3 c 1.36,0.59 2.7,1.21 4,1.88 v -0.22 a 8.39,8.39 0 0 0 -4,-7.15 h -0.06 0.06 c 1.57,0.3 3.14,0.66 4.69,1.08 z"
       class="cls-8" />
    <path
       style="fill:#426572"
       inkscape:connector-curvature="0"
       id="path67"
       d="M 886.47,783 H 442 A 18,18 0 0 1 424,765 V 210.28 a 18,18 0 0 1 18,-18 h 444.47 a 18,18 0 0 1 18,18 v 293 h -12 v -293 a 6,6 0 0 0 -6,-6 H 442 a 6,6 0 0 0 -6,6 V 765 a 6,6 0 0 0 6,6 h 444.47 a 6,6 0 0 0 6,-6 V 626.25 h 12 V 765 a 18,18 0 0 1 -18,18 z"
       class="cls-4" />
    <path
       style="fill:#ffffff"
       inkscape:connector-curvature="0"
       id="path69"
       d="m 887.83,200.37 h 4.89 a 83,83 0 0 1 83,83 v 97.35 a 41.52,41.52 0 0 1 -41.52,41.52 h -4.89 A 41.52,41.52 0 0 1 887.79,380.72 V 200.37 Z"
       class="cls-5" />
    <path
       style="fill:#ef4f43"
       inkscape:connector-curvature="0"
       id="path71"
       d="m 445.38,200.37 h 87.93 v 180.4 a 41.52,41.52 0 0 1 -41.52,41.52 h -4.89 a 41.52,41.52 0 0 1 -41.52,-41.52 z"
       class="cls-11" />
    <path
       style="fill:#e8837e"
       inkscape:connector-curvature="0"
       id="path73"
       d="m 618.45,200.37 h 87.93 v 180.4 a 41.52,41.52 0 0 1 -41.52,41.52 H 660 a 41.52,41.52 0 0 1 -41.52,-41.52 v -180.4 z"
       class="cls-12" />
    <path
       style="fill:#e8837e"
       inkscape:connector-curvature="0"
       id="path75"
       d="m 798.5,200.37 h 87.93 v 180.4 a 41.52,41.52 0 0 1 -41.52,41.52 H 840 a 41.52,41.52 0 0 1 -41.52,-41.52 v -180.4 z"
       class="cls-12" />
    <path
       style="fill:#ffffff"
       inkscape:connector-curvature="0"
       id="path77"
       d="m 441.89,200.37 h 4.89 v 180.4 a 41.52,41.52 0 0 1 -41.52,41.52 h -4.89 a 41.52,41.52 0 0 1 -41.52,-41.52 v -97.35 a 83,83 0 0 1 83.04,-83.05 z"
       class="cls-5" />
    <path
       style="opacity:0.5;fill:#d9e2ef"
       inkscape:connector-curvature="0"
       id="path79"
       d="m 372.8,288.3 v 90 a 44.13,44.13 0 0 0 35.2,43.12 43.3,43.3 0 0 1 -8.72,0.88 44.1,44.1 0 0 1 -44,-44 v -90 a 87.93,87.93 0 0 1 87.93,-87.93 v 1.73 a 88,88 0 0 0 -70.41,86.2 z"
       class="cls-13" />
    <path
       style="opacity:0.5;fill:#d9e2ef"
       inkscape:connector-curvature="0"
       id="path81"
       d="m 952,288.3 v 90 a 44.13,44.13 0 0 1 -35.24,43.09 43.3,43.3 0 0 0 8.72,0.88 44.1,44.1 0 0 0 44,-44 v -90 a 87.93,87.93 0 0 0 -87.93,-87.93 v 1.73 A 88,88 0 0 1 952,288.3 Z"
       class="cls-13" />
    <path
       style="fill:#dd3e3a"
       inkscape:connector-curvature="0"
       id="path83"
       d="m 464.22,219.91 v 178 a 43.47,43.47 0 0 0 4.6,19.51 44,44 0 0 1 -21.35,-37.65 v -178 h 87.93 v 18.14 z"
       class="cls-14" />
    <path
       style="fill:#d66765"
       inkscape:connector-curvature="0"
       id="path85"
       d="m 640.08,219.91 v 178 a 43.47,43.47 0 0 0 4.6,19.51 44,44 0 0 1 -21.35,-37.65 v -178 h 87.93 v 18.14 z"
       class="cls-15" />
    <path
       style="fill:#d66765"
       inkscape:connector-curvature="0"
       id="path87"
       d="m 816.65,219.91 v 178 a 43.47,43.47 0 0 0 4.6,19.51 44,44 0 0 1 -21.35,-37.65 v -178 h 87.93 v 18.14 z"
       class="cls-15" />
    <path
       style="fill:#ffffff"
       inkscape:connector-curvature="0"
       id="path89"
       d="m 533.31,200.37 h 87.93 v 180.4 a 41.52,41.52 0 0 1 -41.52,41.52 h -4.89 a 41.52,41.52 0 0 1 -41.52,-41.52 z"
       class="cls-5" />
    <path
       style="opacity:0.5;fill:#d9e2ef"
       inkscape:connector-curvature="0"
       id="path91"
       d="m 548,215.72 v 178 a 43.47,43.47 0 0 0 4.6,19.51 44,44 0 0 1 -21.35,-37.65 v -178 h 87.93 v 18.14 z"
       class="cls-13" />
    <path
       style="fill:#ffffff"
       inkscape:connector-curvature="0"
       id="path93"
       d="m 707.78,200.37 h 87.93 v 180.4 a 41.52,41.52 0 0 1 -41.52,41.52 h -4.89 a 41.52,41.52 0 0 1 -41.52,-41.52 z"
       class="cls-5" />
    <path
       style="opacity:0.5;fill:#d9e2ef"
       inkscape:connector-curvature="0"
       id="path95"
       d="m 722.43,215.72 v 178 a 43.47,43.47 0 0 0 4.6,19.51 44,44 0 0 1 -21.35,-37.65 v -178 h 87.93 v 18.14 z"
       class="cls-13" />
    <path
       style="fill:#426572"
       inkscape:connector-curvature="0"
       id="path97"
       d="m 402.46,426.2 h -4.89 A 47.58,47.58 0 0 1 350,378.68 v -97.35 a 89.15,89.15 0 0 1 89,-89 h 11 v 186.4 A 47.58,47.58 0 0 1 402.46,426.2 Z M 438,204.29 a 77.14,77.14 0 0 0 -75.93,77 v 97.35 a 35.56,35.56 0 0 0 35.52,35.52 h 4.89 A 35.56,35.56 0 0 0 438,378.68 Z"
       class="cls-4" />
    <path
       style="fill:#426572"
       inkscape:connector-curvature="0"
       id="path99"
       d="M 490.39,426.2 H 485.5 A 47.58,47.58 0 0 1 438,378.68 v -186.4 h 99.93 v 186.4 A 47.58,47.58 0 0 1 490.39,426.2 Z M 450,204.28 v 174.4 a 35.56,35.56 0 0 0 35.5,35.52 h 4.89 a 35.56,35.56 0 0 0 35.52,-35.52 v -174.4 z"
       class="cls-4" />
    <path
       style="fill:#426572"
       inkscape:connector-curvature="0"
       id="path101"
       d="m 578.32,426.2 h -4.89 a 47.58,47.58 0 0 1 -47.52,-47.52 v -186.4 h 99.93 v 186.4 A 47.58,47.58 0 0 1 578.32,426.2 Z M 537.91,204.28 v 174.4 a 35.56,35.56 0 0 0 35.52,35.52 h 4.89 a 35.56,35.56 0 0 0 35.52,-35.52 v -174.4 z"
       class="cls-4" />
    <path
       style="fill:#426572"
       inkscape:connector-curvature="0"
       id="path103"
       d="m 666.26,426.2 h -4.89 a 47.58,47.58 0 0 1 -47.52,-47.52 v -186.4 h 99.93 v 186.4 A 47.58,47.58 0 0 1 666.26,426.2 Z M 625.85,204.28 v 174.4 a 35.56,35.56 0 0 0 35.52,35.52 h 4.89 a 35.56,35.56 0 0 0 35.52,-35.52 v -174.4 z"
       class="cls-4" />
    <path
       style="fill:#426572"
       inkscape:connector-curvature="0"
       id="path105"
       d="m 754.19,426.2 h -4.89 a 47.58,47.58 0 0 1 -47.52,-47.52 v -186.4 h 99.93 v 186.4 A 47.58,47.58 0 0 1 754.19,426.2 Z M 713.78,204.28 v 174.4 a 35.56,35.56 0 0 0 35.52,35.52 h 4.89 a 35.56,35.56 0 0 0 35.52,-35.52 v -174.4 z"
       class="cls-4" />
    <path
       style="fill:#426572"
       inkscape:connector-curvature="0"
       id="path107"
       d="m 842.12,426.2 h -4.89 a 47.58,47.58 0 0 1 -47.52,-47.52 v -186.4 h 99.93 v 186.4 A 47.58,47.58 0 0 1 842.12,426.2 Z M 801.71,204.28 v 174.4 a 35.56,35.56 0 0 0 35.52,35.52 h 4.89 a 35.56,35.56 0 0 0 35.52,-35.52 v -174.4 z"
       class="cls-4" />
    <path
       style="fill:#426572"
       inkscape:connector-curvature="0"
       id="path109"
       d="m 930.05,426.2 h -4.89 a 47.58,47.58 0 0 1 -47.52,-47.52 v -186.4 h 10.89 a 89.15,89.15 0 0 1 89,89 v 97.35 a 47.58,47.58 0 0 1 -47.48,47.57 z m -40.4,-221.91 v 174.39 a 35.56,35.56 0 0 0 35.52,35.52 h 4.89 a 35.56,35.56 0 0 0 35.52,-35.52 v -97.35 a 77.14,77.14 0 0 0 -75.93,-77.04 z"
       class="cls-4" />
    <path
       style="fill:#ffffff"
       inkscape:connector-curvature="0"
       id="path111"
       d="M 509.12,242.24 V 282 c 0,3.86 6,3.87 6,0 v -39.76 c 0,-3.86 -6,-3.87 -6,0 z"
       class="cls-5" />
    <path
       style="fill:#ffffff"
       inkscape:connector-curvature="0"
       id="path113"
       d="m 509.12,294.59 v 16.05 c 0,3.86 6,3.87 6,0 v -16.05 c 0,-3.86 -6,-3.87 -6,0 z"
       class="cls-5" />
    <rect
       style="fill:#dee6f1"
       id="rect115"
       ry="17.799999"
       rx="17.799999"
       height="37.689999"
       width="514.28003"
       y="764.96002"
       x="409.09"
       class="cls-16" />
    <path
       style="fill:#a7bcd5"
       inkscape:connector-curvature="0"
       id="path117"
       d="m 421.45,767.75 h 491.87 a 11.2,11.2 0 0 1 11.2,11.2 v 0.66 H 410.24 V 779 a 11.2,11.2 0 0 1 11.2,-11.2 z"
       class="cls-17" />
    <path
       style="fill:#426572"
       inkscape:connector-curvature="0"
       id="path119"
       d="M 907,809.34 H 428.34 a 23.82,23.82 0 0 1 -23.8,-23.8 v -2.09 a 23.82,23.82 0 0 1 23.8,-23.8 H 907 a 23.82,23.82 0 0 1 23.8,23.8 v 2.09 A 23.82,23.82 0 0 1 907,809.34 Z M 428.34,771.65 a 11.81,11.81 0 0 0 -11.8,11.8 v 2.09 a 11.81,11.81 0 0 0 11.8,11.8 H 907 a 11.81,11.81 0 0 0 11.8,-11.8 v -2.09 A 11.81,11.81 0 0 0 907,771.65 Z"
       class="cls-4" />
    <path
       style="fill:#426572"
       inkscape:connector-curvature="0"
       id="path121"
       d="M 859.64,711.64 H 471.48 v -259 h 388.16 z m -376.16,-12 h 364.16 v -235 H 483.48 Z"
       class="cls-4" />
    <path
       style="opacity:0.1;fill:#070707"
       inkscape:connector-curvature="0"
       id="path123"
       d="M 416.42,15.36 C 254.18,15 153.12,117.1 152.77,277.87 c -0.11,49.68 26,127.2 71.14,220.84 20.38,39.51 45.09,83.4 71.35,127.29 32,54.13 67,108.29 102,158.05 l 17.48,23.44 c 5.86,-7.31 11.72,-14.61 17.59,-23.36 35.2,-51.07 70.38,-103.61 102.64,-157.61 26.42,-43.8 49.89,-87.58 70.43,-127 C 652.4,406.08 678.85,328.68 678.96,279 679.26,122.62 574.27,15.7 416.42,15.36 Z m -0.91,423.83 C 319,439 240.29,359.91 240.5,263.43 c 0.21,-96.48 79.3,-175.21 175.76,-175 96.46,0.21 175.21,79.3 175,175.76 -0.21,96.46 -79.26,175.21 -175.76,175 z"
       class="cls-18" />
    <path
       style="fill:#ffffff"
       inkscape:connector-curvature="0"
       id="path125"
       d="m 570.81,252.32 c -0.21,96.49 -79.31,175.22 -175.77,175 -83.54,-0.18 -153.81,-59.52 -171,-138.11 a 174.31,174.31 0 0 1 -2.62,-30.58 c 0.21,-96.45 79.31,-175.21 175.76,-175 83.42,0.18 153.6,59.37 170.92,137.74 a 0.4,0.4 0 0 0 0,0.13 174.18,174.18 0 0 1 2.71,30.82 z"
       class="cls-5" />
    <path
       style="fill:#e8837e"
       inkscape:connector-curvature="0"
       id="path127"
       d="M 397.7,5.7 C 235.47,5.35 134.4,107.44 134.06,268.21 c -0.11,49.68 26,127.2 71.14,220.84 20.37,39.52 45.12,83.41 71.34,127.32 32,54.13 67,108.29 102,158.05 L 396,797.85 c 5.86,-7.31 11.72,-14.61 17.59,-23.36 35.2,-51.07 70.38,-103.61 102.64,-157.61 26.42,-43.8 49.89,-87.58 70.43,-127 47,-93.44 73.45,-170.84 73.56,-220.52 C 660.55,113 555.55,6 397.7,5.7 Z m -0.91,423.83 c -96.46,-0.21 -175.21,-79.28 -175,-175.76 0.21,-96.48 79.3,-175.21 175.76,-175 96.46,0.21 175.21,79.3 175,175.76 -0.21,96.46 -79.3,175.21 -175.76,175 z"
       class="cls-12" />
    <path
       style="fill:#d66765"
       inkscape:connector-curvature="0"
       id="path129"
       d="m 576.54,513.19 c -18,34.21 -38.16,71 -60.37,107.82 -32.25,54 -67.44,106.53 -102.63,157.6 -5.86,8.76 -11.72,16 -17.6,23.37 l -17.48,-23.44 c -35,-49.76 -69.93,-103.92 -102,-158 -26.24,-43.92 -51,-87.81 -71.35,-127.32 C 160,399.54 133.9,322 134,272.33 c 0.14,-66.34 17.44,-122.67 49.11,-166 -12.53,32.67 -19.18,69.87 -19.27,110.88 -0.11,49.68 26,127.21 71.14,220.84 20.38,39.51 45.12,83.4 71.35,127.32 32,54.12 67,108.28 102,158 l 17.48,23.44 c 5.87,-7.32 11.73,-14.61 17.6,-23.37 35.19,-51.06 70.38,-103.61 102.63,-157.6 10.63,-17.61 20.79,-35.28 30.5,-52.65 z"
       class="cls-15" />
    <path
       style="fill:#426572"
       inkscape:connector-curvature="0"
       id="path131"
       d="m 395.75,810.59 -23,-30.85 C 337.75,729.96 302.39,675.15 270.49,621.23 243.14,575.45 218.4,531.29 198.95,493.56 l -0.08,-0.17 C 151.08,394.23 126.91,318.9 127,269.5 127.17,188.55 152.47,120.57 200.17,72.89 247.87,25.21 315.87,0 396.83,0 h 0.84 c 39.66,0.08 76.73,6.76 110.19,19.83 A 241.6,241.6 0 0 1 648,161 c 12.79,33.39 19.23,70.27 19.14,109.64 -0.11,49.85 -25.8,127.19 -74.3,223.65 v 0.09 C 574.56,529.47 550.01,575.66 522.19,621.77 487.7,679.49 450.82,734 419.3,779.76 c -5.9,8.81 -11.87,16.26 -17.65,23.47 z m -11.62,-39 12,16.08 c 3.91,-5 7.73,-10 11.59,-15.79 31.45,-45.63 68.17,-99.93 102.45,-157.3 27.62,-45.79 52,-91.71 70.21,-126.61 47.51,-94.5 72.68,-169.66 72.78,-217.35 0.16,-75 -24,-139.12 -69.9,-185.39 C 537.2,38.79 473,14.16 397.64,14 h -0.81 C 319.66,14 255.1,37.78 210.08,82.79 165.06,127.8 141.18,192.36 141,269.52 c -0.1,46.6 24.25,121.88 70.41,217.7 19.32,37.46 43.9,81.32 71.09,126.85 31.73,53.61 66.86,108.08 101.64,157.54 z m 13,-333.78 h -0.4 A 182.17,182.17 0 0 1 268.58,126.35 181.1,181.1 0 0 1 397.11,73.06 h 0.4 a 182.18,182.18 0 0 1 128.15,311.48 181.09,181.09 0 0 1 -128.53,53.29 z m -0.37,-14 h 0.37 a 168.3851,168.3851 0 0 0 0.36,-336.77 h -0.37 a 168.3851,168.3851 0 0 0 -0.36,336.77 z"
       class="cls-4" />
    <path
       style="fill:#ffffff"
       inkscape:connector-curvature="0"
       id="path133"
       d="m 552.08,94 c 34.91,32.41 59.08,74.3 68.73,121.05 a 259.15,259.15 0 0 1 5.06,52.23 c 0,7.72 12,7.73 12,0 C 637.81,211 620.79,156.55 585.56,112.36 a 245.8,245.8 0 0 0 -25,-26.85 c -5.65,-5.25 -14.16,3.22 -8.49,8.49 z"
       class="cls-5" />
    <path
       style="fill:#ffffff"
       inkscape:connector-curvature="0"
       id="path135"
       d="m 489.25,52 0.7,0.29 c -1.92,-0.77 1,0.45 1.44,0.65 2.93,1.33 5.81,2.76 8.66,4.24 a 247,247 0 0 1 28.36,17.5 c 6.31,4.47 12.32,-5.93 6.06,-10.36 -13.07,-9.26 -27.07,-18 -42,-23.89 -7.18,-2.84 -10.3,8.76 -3.19,11.57 z"
       class="cls-5" />
    <rect
       style="fill:#426572"
       id="rect137"
       height="248.96001"
       width="12"
       y="458.44"
       x="635.37"
       class="cls-4" />
    <rect
       style="fill:#426572"
       id="rect139"
       height="12"
       width="315.57001"
       y="576.91998"
       x="538.29999"
       class="cls-4" />
    <rect
       style="opacity:0.3;fill:#426572"
       id="rect141"
       height="12"
       width="320.32001"
       y="586.42999"
       x="533.53998"
       class="cls-19" />
    <rect
       style="opacity:0.3;fill:#426572"
       id="rect143"
       height="248.96001"
       width="12"
       y="458.44"
       x="643.29999"
       class="cls-19" />
    <rect
       style="fill:#426572"
       id="rect145"
       height="22.5"
       width="12"
       y="590.41998"
       x="892.46002"
       class="cls-4" />
    <rect
       style="fill:#426572"
       id="rect147"
       height="60.66"
       width="12"
       y="515.25"
       x="892.46002"
       class="cls-4" />
  </g>
</svg>
