<svg xmlns="http://www.w3.org/2000/svg" viewBox="0 0 196.85 196.85"><defs><style>.cls-1{fill:#6ab6ff;}.cls-2{fill:#92ceff;}.cls-3{fill:#3d3634;}.cls-4{fill:#e8e8e8;}.cls-5{fill:#dadada;}.cls-6{opacity:0.4;}.cls-7{opacity:0.1;}.cls-8{fill:#55e0ff;}.cls-9{fill:#fff;}</style></defs><title>Asset 290</title><g id="Layer_2" data-name="Layer 2"><g id="Layer_1-2" data-name="Layer 1"><circle class="cls-1" cx="98.43" cy="98.43" r="96.93"/><path class="cls-2" d="M11.1,98.43A96.93,96.93,0,0,1,103.22,1.62q-2.38-.12-4.8-.12a96.93,96.93,0,1,0,0,193.85q2.41,0,4.8-.12A96.93,96.93,0,0,1,11.1,98.43Z"/><path class="cls-3" d="M98.43,196.85a98.43,98.43,0,1,1,98.43-98.43A98.54,98.54,0,0,1,98.43,196.85ZM98.43,3a95.43,95.43,0,1,0,95.43,95.43A95.53,95.53,0,0,0,98.43,3Z"/><circle class="cls-4" cx="98.43" cy="97.79" r="80.29"/><path class="cls-5" d="M24.53,108a80.29,80.29,0,0,1,145-47.5A80.3,80.3,0,1,0,33.69,145.28,79.93,79.93,0,0,1,24.53,108Z"/><path class="cls-3" d="M96.27,42.14c3.22,0,3.22-5,0-5s-3.22,5,0,5Z"/><path class="cls-3" d="M101.07,170.73c3.22,0,3.22-5,0-5s-3.22,5,0,5Z"/><path class="cls-3" d="M164.4,104.52c3.22,0,3.22-5,0-5s-3.22,5,0,5Z"/><path class="cls-3" d="M32,103.56c3.22,0,3.22-5,0-5s-3.22,5,0,5Z"/><rect class="cls-4" x="93.67" y="67.15" width="9.38" height="34.5" rx="4.69" ry="4.69"/><rect class="cls-3" x="93.67" y="67.15" width="9.38" height="34.5" rx="4.69" ry="4.69"/><circle class="cls-4" cx="98.27" cy="102.5" r="8.16"/><circle class="cls-3" cx="98.27" cy="101.86" r="8.16"/><path class="cls-3" d="M62.65,128.18l69.17-46,9.81-6.52c2.67-1.77.17-6.11-2.52-4.32l-69.17,46-9.81,6.52c-2.67,1.77-.17,6.11,2.52,4.32Z"/><g class="cls-6"><g class="cls-7"><ellipse class="cls-8" cx="98.35" cy="97.06" rx="80.29" ry="78.93"/></g><path class="cls-9" d="M114,19.16,32.75,142.86a83,83,0,0,1-9.51-24.2L88.6,19.18a78.75,78.75,0,0,1,25.42,0Z"/><path class="cls-9" d="M136.62,27.93,47.7,157.5a79.37,79.37,0,0,1-7.56-7.7L126.53,23.92A79.52,79.52,0,0,1,136.62,27.93Z"/><path class="cls-9" d="M176.72,78.67h0l-66.35,96.69h0a82.36,82.36,0,0,1-21.77.22L168.77,58.76A77.6,77.6,0,0,1,176.72,78.67Z"/></g><path class="cls-3" d="M98.43,180.86a81.79,81.79,0,1,1,81.79-81.79A81.88,81.88,0,0,1,98.43,180.86Zm0-160.58a78.79,78.79,0,1,0,78.79,78.79A78.88,78.88,0,0,0,98.43,20.27Z"/></g></g></svg>