<?xml version="1.0" encoding="UTF-8" standalone="no"?>
<svg
   xmlns:dc="http://purl.org/dc/elements/1.1/"
   xmlns:cc="http://creativecommons.org/ns#"
   xmlns:rdf="http://www.w3.org/1999/02/22-rdf-syntax-ns#"
   xmlns:svg="http://www.w3.org/2000/svg"
   xmlns="http://www.w3.org/2000/svg"
   xmlns:sodipodi="http://sodipodi.sourceforge.net/DTD/sodipodi-0.dtd"
   xmlns:inkscape="http://www.inkscape.org/namespaces/inkscape"
   viewBox="0 0 1286.04 746.09"
   version="1.1"
   id="svg107"
   sodipodi:docname="privacy.svg"
   inkscape:version="0.92.5 (2060ec1f9f, 2020-04-08)">
  <metadata
     id="metadata111">
    <rdf:RDF>
      <cc:Work
         rdf:about="">
        <dc:format>image/svg+xml</dc:format>
        <dc:type
           rdf:resource="http://purl.org/dc/dcmitype/StillImage" />
      </cc:Work>
    </rdf:RDF>
  </metadata>
  <sodipodi:namedview
     pagecolor="#ffffff"
     bordercolor="#666666"
     borderopacity="1"
     objecttolerance="10"
     gridtolerance="10"
     guidetolerance="10"
     inkscape:pageopacity="0"
     inkscape:pageshadow="2"
     inkscape:window-width="1920"
     inkscape:window-height="1016"
     id="namedview109"
     showgrid="false"
     inkscape:zoom="0.31631571"
     inkscape:cx="70.806897"
     inkscape:cy="360.39941"
     inkscape:window-x="0"
     inkscape:window-y="27"
     inkscape:window-maximized="1"
     inkscape:current-layer="svg107" />
  <defs
     id="defs9">
    <style
       id="style2">.cls-1{fill:url(#linear-gradient);}.cls-2{fill:#e7f6ff;}.cls-3{fill:none;}.cls-4{fill:#426572;}.cls-5{fill:#fff;}.cls-6{fill:#ebf0f9;}.cls-7{fill:#637f91;}.cls-10,.cls-8{opacity:0.5;}.cls-10,.cls-9{fill:#a7bcd5;}.cls-11{fill:#d6dee9;}.cls-12{fill:#e8837e;}.cls-13{fill:#d66765;}.cls-14{fill:#606060;opacity:0.2;}.cls-15{fill:#a8ef9e;}.cls-16{fill:#a7e59c;}.cls-17{fill:#85d175;}</style>
    <linearGradient
       id="linear-gradient"
       x1="1.32"
       y1="371.19"
       x2="1254.6"
       y2="371.19"
       gradientUnits="userSpaceOnUse">
      <stop
         offset="0"
         stop-color="#c5e9fa"
         id="stop4" />
      <stop
         offset="1"
         stop-color="#c4f4ea"
         id="stop6" />
    </linearGradient>
  </defs>
  <title
     id="title11">Asset 18</title>
  <g
     id="g97">
    <path
       style="fill:#e7f6ff"
       inkscape:connector-curvature="0"
       id="path15"
       d="m 1248.42,542.54 a 26.3,26.3 0 0 1 -6.2,-0.75 25.94,25.94 0 1 1 6.2,0.75 z m 0,-40.18 a 14.09,14.09 0 0 0 -3.32,27.77 v 0 a 14.08,14.08 0 1 0 3.32,-27.77 z"
       class="cls-2" />
    <circle
       style="fill:#e7f6ff"
       id="circle17"
       transform="rotate(-76.37)"
       r="11.33"
       cy="1313.2568"
       cx="-265.38412"
       class="cls-2" />
    <path
       style="fill:#e7f6ff"
       inkscape:connector-curvature="0"
       id="path19"
       d="m 55.19,540.07 a 26.09,26.09 0 1 1 1.14,0 z m 0,-40.17 H 54.6 a 14.09,14.09 0 1 0 0.61,0 z"
       class="cls-2" />
    <circle
       style="fill:#e7f6ff"
       id="circle21"
       transform="rotate(-2.47)"
       r="11.33"
       cy="573.55701"
       cx="11.393235"
       class="cls-2" />
    <path
       style="fill:#e7f6ff"
       inkscape:connector-curvature="0"
       id="path23"
       d="m 709.08,118.26 a 26.06,26.06 0 1 1 14.92,-4.71 26.07,26.07 0 0 1 -14.92,4.71 z M 709,78.1 a 14.14,14.14 0 1 0 2.47,0.22 A 14.17,14.17 0 0 0 709,78.1 Z"
       class="cls-2" />
    <circle
       style="fill:#e7f6ff"
       id="circle25"
       transform="rotate(-35.04)"
       r="11.33"
       cy="460.90317"
       cx="469.92661"
       class="cls-2" />
    <rect
       style="fill:none"
       id="rect27"
       height="44.48"
       width="44.48"
       y="105.14"
       x="713.35999"
       class="cls-3" />
    <rect
       style="fill:none"
       id="rect29"
       height="44.48"
       width="44.48"
       y="105.14"
       x="713.35999"
       class="cls-3" />
    <path
       style="fill:#426572"
       inkscape:connector-curvature="0"
       id="path31"
       d="M 839.66,724.13"
       class="cls-4" />
    <path
       style="fill:#426572"
       inkscape:connector-curvature="0"
       id="path37"
       d="m 954.18,742.93 h -596.5 v -13 h 596.5 a 6.5,6.5 0 1 1 0,13 z"
       class="cls-4" />
    <path
       style="fill:#426572"
       inkscape:connector-curvature="0"
       id="path39"
       d="m 331,742.93 h -36.47 a 6.5,6.5 0 0 1 0,-13 H 331 a 6.5,6.5 0 1 1 0,13 z"
       class="cls-4" />
    <path
       style="fill:#426572"
       inkscape:connector-curvature="0"
       id="path41"
       d="m 270.86,742.93 h -11.62 a 6.5,6.5 0 0 1 0,-13 h 11.62 a 6.5,6.5 0 0 1 0,13 z"
       class="cls-4" />
    <path
       style="fill:#426572"
       inkscape:connector-curvature="0"
       id="path43"
       d="M 1163.34,742.93 H 980 v -13 h 183.34 a 6.5,6.5 0 0 1 0,13 z"
       class="cls-4" />
    <path
       style="fill:#426572"
       inkscape:connector-curvature="0"
       id="path45"
       d="M 226,742.93 H 42.65 v -13 H 226 a 6.5,6.5 0 1 1 0,13 z"
       class="cls-4" />
    <path
       style="fill:#ebf0f9"
       inkscape:connector-curvature="0"
       id="path47"
       d="M 254.27,235.44 H 985 a 13.36,13.36 0 0 1 13.36,13.36 V 712.31 H 240.91 V 248.8 a 13.36,13.36 0 0 1 13.36,-13.36 z"
       class="cls-6" />
    <rect
       style="fill:#637f91"
       id="rect49"
       height="400.89999"
       width="701.77002"
       y="268.53"
       x="270.23999"
       class="cls-7" />
    <path
       style="fill:#ffffff"
       inkscape:connector-curvature="0"
       id="path51"
       d="m 265,668.68 h 710 v 0 a 12,12 0 0 1 -12,12 H 277 a 12,12 0 0 1 -12,-12 z"
       class="cls-5" />
    <g
       style="opacity:0.5"
       id="g57"
       class="cls-8">
      <polygon
         style="fill:#a7bcd5"
         id="polygon53"
         points="479.94,267.03 375.02,671.69 322.18,671.69 427.1,267.03 "
         class="cls-9" />
      <polygon
         style="fill:#a7bcd5"
         id="polygon55"
         points="614.63,267.03 509.7,671.69 398.9,671.69 503.82,267.03 "
         class="cls-9" />
    </g>
    <path
       style="fill:#426572"
       inkscape:connector-curvature="0"
       id="path59"
       d="M 1004.33,718.31 H 234.91 V 280.9 a 51.52,51.52 0 0 1 51.46,-51.46 h 288.1 v 12 H 286.37 A 39.51,39.51 0 0 0 246.91,280.9 V 706.31 H 992.33 V 252.37 A 10.94,10.94 0 0 0 981.4,241.44 H 707.46 v -12 H 981.4 a 23,23 0 0 1 22.93,22.93 z"
       class="cls-4" />
    <path
       style="fill:#ebf0f9"
       inkscape:connector-curvature="0"
       id="path61"
       d="m 145.38,698 h 968.78 v 3.12 a 39,39 0 0 1 -39,39 H 184.38 a 39,39 0 0 1 -39,-39 z"
       class="cls-6" />
    <path
       style="opacity:0.5;fill:#a7bcd5"
       inkscape:connector-curvature="0"
       id="path63"
       d="m 1109.21,718.33 a 29.34,29.34 0 0 1 -27.39,18.8 H 171.71 a 29.34,29.34 0 0 1 -27.39,-18.8 z"
       class="cls-10" />
    <path
       style="fill:#426572"
       inkscape:connector-curvature="0"
       id="path65"
       d="M 1070.65,744.64 H 179.87 a 45.05,45.05 0 0 1 -45,-45 v -9.12 h 980.78 v 9.12 a 45.05,45.05 0 0 1 -45,45 z M 147,702.51 a 33,33 0 0 0 32.88,30.12 h 890.78 a 33,33 0 0 0 32.88,-30.12 z"
       class="cls-4" />
    <path
       style="fill:#426572"
       inkscape:connector-curvature="0"
       id="path67"
       d="M 976.5,673.18 H 262.74 V 262.53 H 976.5 Z m -701.77,-12 H 964.5 V 274.53 H 274.74 Z"
       class="cls-4" />
    <path
       style="fill:#ffffff"
       inkscape:connector-curvature="0"
       id="path69"
       d="m 1096.11,364.81 v 110.57 a 9.06,9.06 0 0 1 -9,9 H 890.77 a 8.88,8.88 0 0 1 -3.66,-0.78 9,9 0 0 1 -5.37,-8.24 V 364.81 a 9,9 0 0 1 5.78,-8.42 v 0 a 8.84,8.84 0 0 1 3.22,-0.6 h 196.31 a 9.06,9.06 0 0 1 8.94,7.77 8.59,8.59 0 0 1 0.12,1.25 z"
       class="cls-5" />
    <path
       style="fill:#d6dee9"
       inkscape:connector-curvature="0"
       id="path71"
       d="m 1094.61,361.8 v 110.57 a 9.06,9.06 0 0 1 -9,9 H 889.27 a 8.88,8.88 0 0 1 -3.66,-0.78 9,9 0 0 1 -5.37,-8.24 v -1.5 h 193.31 a 9.06,9.06 0 0 0 9,-9 V 352.78 h 3 a 9.06,9.06 0 0 1 8.94,7.77 8.59,8.59 0 0 1 0.12,1.25 z"
       class="cls-11" />
    <path
       style="fill:#426572"
       inkscape:connector-curvature="0"
       id="path73"
       d="M 1085.58,488.9 H 889.27 a 14.82,14.82 0 0 1 -6.12,-1.31 15,15 0 0 1 -8.91,-13.72 V 363.31 a 15.12,15.12 0 0 1 9.3,-13.88 l 1,-0.54 h 0.48 a 14.82,14.82 0 0 1 4.21,-0.6 h 196.31 a 15.09,15.09 0 0 1 14.88,12.93 14.52,14.52 0 0 1 0.15,2.09 v 110.57 a 14.91,14.91 0 0 1 -2.79,8.71 15.06,15.06 0 0 1 -12.2,6.31 z m -198.11,-128 a 3,3 0 0 0 -1.23,2.42 v 110.56 a 3,3 0 0 0 1.81,2.76 2.93,2.93 0 0 0 1.22,0.26 h 196.31 a 3,3 0 0 0 2.46,-1.29 3,3 0 0 0 0.56,-1.74 V 363.31 a 2.6,2.6 0 0 0 0,-0.38 3.05,3.05 0 0 0 -3,-2.65 H 889.27 a 2.88,2.88 0 0 0 -0.83,0.12 z"
       class="cls-4" />
    <path
       style="fill:#426572"
       inkscape:connector-curvature="0"
       id="path75"
       d="M 937,413.81 A 32.07,32.07 0 0 0 927.4,410 11.88,11.88 0 0 0 933,399.82 11.92,11.92 0 1 0 914.69,410 a 31.85,31.85 0 0 0 -10,3.84 5.82,5.82 0 0 0 -2.63,4.51 v 14.29 a 3,3 0 0 0 3,3 h 31.59 a 3,3 0 0 0 3,-3 V 418.33 A 5.62,5.62 0 0 0 937,413.81 Z"
       class="cls-4" />
    <rect
       style="fill:#426572"
       id="rect77"
       height="12"
       width="105.3"
       y="374.48999"
       x="957.71997"
       class="cls-4" />
    <rect
       style="fill:#426572"
       id="rect79"
       height="12"
       width="67.690002"
       y="395.54999"
       x="957.71997"
       class="cls-4" />
    <rect
       style="fill:#426572"
       id="rect81"
       height="12"
       width="103.8"
       y="436.92001"
       x="957.71997"
       class="cls-4" />
    <path
       style="fill:#e8837e"
       inkscape:connector-curvature="0"
       id="path83"
       d="m 630.62,739.39 c 0,0 160.06,-80 160.06,-200.07 V 379.25 l -160.06,-40 -160.06,40 v 160.06 c 0,120.05 160.06,200.08 160.06,200.08 z"
       class="cls-12" />
    <path
       style="fill:#d66765"
       inkscape:connector-curvature="0"
       id="path85"
       d="m 662.35,724.65 a 362.33,362.33 0 0 1 -31.83,18.74 c 0,0 -160.06,-80 -160.06,-200.08 V 383.25 l 35,-8.75 v 135.69 c 0,104.6 105.74,182.81 156.89,214.46 z"
       class="cls-13" />
    <path
       style="fill:#426572"
       inkscape:connector-curvature="0"
       id="path87"
       d="m 627.42,746.09 -2.68,-1.34 c -1.66,-0.83 -41.17,-20.75 -81.3,-55.87 -23.69,-20.73 -42.59,-42.43 -56.18,-64.52 -17.19,-27.93 -25.9,-56.54 -25.9,-85 V 374.57 l 166.06,-41.52 1.46,0.36 164.6,41.15 v 164.75 c 0,28.51 -8.71,57.12 -25.9,85 -13.59,22.09 -32.49,43.79 -56.18,64.52 -40.13,35.12 -79.64,55 -81.3,55.87 z M 473.36,383.94 v 155.37 c 0,26.25 8.11,52.75 24.12,78.76 13,21.06 31.08,41.85 53.86,61.78 a 429.65,429.65 0 0 0 76.08,52.77 430.41,430.41 0 0 0 76.28,-52.94 C 726.43,659.76 744.51,639 757.43,618 c 16,-26 24,-52.43 24,-78.64 V 383.94 L 627.42,345.42 Z"
       class="cls-4" />
    <path
       style="fill:#ffffff"
       inkscape:connector-curvature="0"
       id="path89"
       d="m 534.44,600.8 69.16,55.33 9.82,7.86 c 5.42,4.34 10.56,6.73 17.64,5.78 a 20.72,20.72 0 0 0 15.34,-10 L 722.1,536 732.9,518.35 c 5.74,-9.38 2.36,-23.51 -7.53,-28.73 -10.23,-5.41 -22.61,-2.48 -28.73,7.53 l -75.7,123.76 -10.8,17.65 33,-4.25 L 574,579 l -9.82,-7.86 c -8.56,-6.85 -21.45,-9 -29.7,0 -7,7.62 -9.16,22.37 0,29.7 z"
       class="cls-5" />
    <path
       style="opacity:0.2;fill:#606060"
       inkscape:connector-curvature="0"
       id="path91"
       d="m 356,345 a 111.31,111.31 0 1 0 -199.1,-99.42 111.33,111.33 0 0 0 89.46,163.31 q -4.82,1.14 -9.79,1.85 A 111.31,111.31 0 0 0 332.44,377.98 111.57,111.57 0 0 0 356,345 Z"
       class="cls-14" />
    <circle
       style="fill:#a8ef9e"
       id="circle93"
       r="111.3"
       cy="271.60001"
       cx="242.75999"
       class="cls-15" />
    <path
       style="fill:#a7e59c"
       inkscape:connector-curvature="0"
       id="path95"
       d="m 348.75,279.55 a 111.31,111.31 0 0 1 -127.19,110.15 111.3,111.3 0 0 0 0,-220.31 111.31,111.31 0 0 1 127.2,110.16 z"
       class="cls-16" />
    <path
       style="fill:#426572"
       inkscape:connector-curvature="0"
       id="path97"
       d="M 240.11,394.19 A 117.3,117.3 0 1 1 357.4,276.9 117.43,117.43 0 0 1 240.11,394.19 Z m 0,-222.59 A 105.3,105.3 0 1 0 345.4,276.9 105.41,105.41 0 0 0 240.11,171.6 Z"
       class="cls-4" />
    <rect
       style="fill:#426572"
       id="rect99"
       height="12"
       width="22.5"
       y="229.97"
       x="669.79999"
       class="cls-4" />
    <rect
       style="fill:#426572"
       id="rect101"
       height="12"
       width="60.66"
       y="229.97"
       x="594.63"
       class="cls-4" />
    <path
       style="fill:#85d175"
       inkscape:connector-curvature="0"
       id="path103"
       d="m 283.86,337.74 c -32.66,4.63 -72.92,-7.35 -72.92,-7.35 l -19.85,3.95 a 5.89,5.89 0 0 1 -7,-6 395.17,395.17 0 0 0 -1.09,-42.56 5.87,5.87 0 0 1 8.24,-5.93 34.17,34.17 0 0 0 14.36,3.52 c 12.05,-0.1 22.57,-9.34 27.95,-20.31 5.38,-10.97 6.6,-18.08 7.73,-30.28 0.49,-5.33 1.27,-11.24 5.32,-14.66 7,-5.93 18.52,1 20.79,9.95 2.27,8.95 -1.39,12.93 -4.48,21.63 -2,5.68 -1.56,6 -3.18,11.85 a 3.6,3.6 0 0 0 0.06,3 3.17,3.17 0 0 0 2.3,1.06 c 6.54,0.84 10.83,3.28 17.38,4 A 16.31,16.31 0 0 1 293,280.14 v 49.09 a 8.46,8.46 0 0 1 -9.1,8.51 z"
       class="cls-17" />
  </g>
</svg>
