<?xml version="1.0" encoding="UTF-8" standalone="no"?>
<!-- Created with Inkscape (http://www.inkscape.org/) -->

<svg
   xmlns:dc="http://purl.org/dc/elements/1.1/"
   xmlns:cc="http://creativecommons.org/ns#"
   xmlns:rdf="http://www.w3.org/1999/02/22-rdf-syntax-ns#"
   xmlns:svg="http://www.w3.org/2000/svg"
   xmlns="http://www.w3.org/2000/svg"
   xmlns:sodipodi="http://sodipodi.sourceforge.net/DTD/sodipodi-0.dtd"
   xmlns:inkscape="http://www.inkscape.org/namespaces/inkscape"
   version="1.1"
   id="svg2"
   xml:space="preserve"
   width="707.96002"
   height="666.65332"
   viewBox="0 0 707.96002 666.65332"
   sodipodi:docname="GitHub-Mark.svg"
   inkscape:version="0.92.5 (2060ec1f9f, 2020-04-08)"><metadata
     id="metadata8"><rdf:RDF><cc:Work
         rdf:about=""><dc:format>image/svg+xml</dc:format><dc:type
           rdf:resource="http://purl.org/dc/dcmitype/StillImage" /><dc:title></dc:title></cc:Work></rdf:RDF></metadata><defs
     id="defs6" /><sodipodi:namedview
     pagecolor="#ffffff"
     bordercolor="#666666"
     borderopacity="1"
     objecttolerance="10"
     gridtolerance="10"
     guidetolerance="10"
     inkscape:pageopacity="0"
     inkscape:pageshadow="2"
     inkscape:window-width="1920"
     inkscape:window-height="1016"
     id="namedview4"
     showgrid="false"
     inkscape:zoom="0.70801417"
     inkscape:cx="421.29829"
     inkscape:cy="444.54119"
     inkscape:window-x="0"
     inkscape:window-y="27"
     inkscape:window-maximized="1"
     inkscape:current-layer="g10" /><g
     id="g10"
     inkscape:groupmode="layer"
     inkscape:label="ink_ext_XXXXXX"
     transform="matrix(1.3333333,0,0,-1.3333333,0,666.65333)"><path
       inkscape:connector-curvature="0"
       id="path16"
       style="fill:#1b1817;fill-opacity:1;fill-rule:evenodd;stroke:none;stroke-width:1.54018855"
       d="m 265.46192,494.69143 c -138.52455,0 -250.865907,-112.32594 -250.865907,-250.8967 0,-110.83196 71.880596,-204.875875 171.576997,-238.0669365 12.55254,-2.2948808 17.1269,5.4522665 17.1269,12.1058815 0,5.960529 -0.21563,21.732059 -0.33884,42.66322 -69.78594,-15.155454 -84.51014,33.637716 -84.51014,33.637716 -11.4128,28.986359 -27.862018,36.702699 -27.862018,36.702699 -22.779387,15.5559 1.725012,15.24787 1.725012,15.24787 25.182086,-1.77122 38.427706,-25.85977 38.427706,-25.85977 22.37894,-38.335297 58.72739,-27.261342 73.02034,-20.838755 2.27948,16.202785 8.76367,27.261345 15.92555,33.529905 -55.70862,6.34558 -114.28199,27.86201 -114.28199,124.00058 0,27.39995 9.7802,49.77889 25.82896,67.32164 -2.58751,6.34557 -11.19717,31.85109 2.4643,66.39752 0,0 21.05438,6.74603 68.98505,-25.70574 20.00704,5.56008 41.47727,8.33242 62.80888,8.44023 21.31621,-0.10781 42.77103,-2.88015 62.80889,-8.44023 47.89986,32.45177 68.92343,25.70574 68.92343,25.70574 13.69228,-34.54643 5.08262,-60.05195 2.51051,-66.39752 16.07957,-17.54275 25.78275,-39.92169 25.78275,-67.32164 0,-96.385 -58.66578,-117.59339 -114.54381,-123.80035 8.9947,-7.74715 17.01908,-23.05662 17.01908,-46.467495 0,-33.529903 -0.30804,-60.591014 -0.30804,-68.81562 0,-6.715222 4.52816,-14.5239774 17.25011,-12.0750777 99.61939,33.2526687 171.43838,127.2195727 171.43838,238.0361327 0,138.57076 -112.34135,250.8967 -250.9121,250.8967"
       inkscape:export-xdpi="96"
       inkscape:export-ydpi="96" /></g></svg>